<?xml version="1.0" encoding="UTF-8" standalone="no"?>
<svg width="672px" height="315px" viewBox="0 0 672 315" version="1.1" xmlns="http://www.w3.org/2000/svg" xmlns:xlink="http://www.w3.org/1999/xlink" xmlns:sketch="http://www.bohemiancoding.com/sketch/ns">
    <!-- Generator: Sketch 3.0.4 (8054) - http://www.bohemiancoding.com/sketch -->
    <title>Imported Layers</title>
    <desc>Created with Sketch.</desc>
    <defs></defs>
    <g id="Page-1" stroke="none" stroke-width="1" fill="none" fill-rule="evenodd" sketch:type="MSPage">
        <g id="Imported-Layers" sketch:type="MSLayerGroup" transform="translate(1.000000, 1.000000)" fill="#FFFFFF">
            <path d="M413.053,285.436 L210.662,285.436 L261.91,225.896 C270.803,215.504 275.333,203.373 275.333,189.478 C275.333,176.603 270.544,164.892 260.947,154.381 C251.403,143.936 240.025,137.757 226.963,135.855 C223.617,135.378 219.549,135.165 214.728,135.165 C178.681,135.165 158.725,154.355 154.918,192.801 L186.238,192.801 C186.238,183.816 189.112,176.615 194.778,171.162 C200.443,165.735 207.782,163.032 216.918,163.032 C223.932,163.032 230.373,165.735 236.134,171.058 C241.992,176.426 244.919,182.572 244.919,189.478 C244.919,196.431 240.926,204.525 232.949,213.848 L147.232,313.301 L413.053,313.301 L413.053,285.436" id="Fill-1" sketch:type="MSShapeGroup"></path>
            <path d="M403.76,161.762 C386.351,144.559 365.075,135.928 339.872,135.928 C314.679,135.928 293.325,144.559 275.886,161.762 C258.41,178.949 249.701,199.985 249.701,224.854 C249.701,249.704 258.41,270.721 275.886,287.839 C293.325,304.958 314.679,313.53 339.872,313.53 C364.935,313.53 386.174,304.944 403.646,287.738 C421.088,270.541 429.82,249.554 429.82,224.854 C429.82,199.985 421.114,178.949 403.76,161.762 M382.305,266.645 C370.734,278.033 356.571,283.719 339.872,283.719 C323.14,283.719 308.99,278.033 297.348,266.645 C285.709,255.256 279.922,241.309 279.922,224.854 C279.922,208.237 285.68,194.205 297.25,182.834 C308.807,171.45 322.992,165.762 339.872,165.762 C356.571,165.762 370.734,171.486 382.305,182.988 C393.829,194.428 399.626,208.394 399.626,224.854 C399.626,241.309 393.829,255.256 382.305,266.645" id="Fill-2" sketch:type="MSShapeGroup"></path>
            <path d="M586.809,285.436 L445.561,285.436 L496.809,225.896 C505.754,215.504 510.218,203.373 510.218,189.478 C510.218,176.603 505.423,164.892 495.836,154.381 C486.278,143.936 474.928,137.757 461.852,135.855 C458.48,135.378 454.418,135.165 449.604,135.165 C413.569,135.165 393.623,154.08 389.797,192.493 L421.17,192.493 C421.17,183.535 423.984,176.615 429.631,171.162 C435.322,165.735 442.664,163.032 451.796,163.032 C458.801,163.032 465.206,165.735 471.059,171.058 C476.882,176.426 479.805,182.572 479.805,189.478 C479.805,196.431 475.815,204.525 467.828,213.848 L382.111,313.301 L586.809,313.301 L586.809,285.436" id="Fill-3" sketch:type="MSShapeGroup"></path>
            <path d="M642.9,161.762 C625.536,144.559 604.226,135.928 579.013,135.928 C553.81,135.928 532.498,144.559 515.026,161.762 C497.558,178.949 488.845,199.985 488.845,224.854 C488.845,249.704 497.558,270.721 515.026,287.839 C532.498,304.958 553.81,313.53 579.013,313.53 C604.042,313.53 625.344,304.944 642.776,287.738 C660.265,270.541 668.978,249.554 668.978,224.854 C668.978,199.985 660.265,178.949 642.9,161.762 M621.422,266.645 C609.868,278.033 595.715,283.719 579.013,283.719 C562.316,283.719 548.146,278.033 536.524,266.645 C524.892,255.256 519.046,241.309 519.046,224.854 C519.046,208.237 524.846,194.205 536.377,182.834 C547.935,171.45 562.159,165.762 579.013,165.762 C595.715,165.762 609.868,171.486 621.422,182.988 C633.003,194.428 638.754,208.394 638.754,224.854 C638.754,241.309 633.003,255.256 621.422,266.645" id="Fill-4" sketch:type="MSShapeGroup"></path>
            <path d="M499.374,23.692 C496.678,23.692 494.317,22.72 492.366,20.77 C490.448,18.838 489.463,16.511 489.463,13.856 C489.463,11.107 490.448,8.744 492.366,6.8 C494.317,4.875 496.678,3.935 499.374,3.935 C502.144,3.935 504.568,4.875 506.471,6.8 C508.457,8.744 509.423,11.107 509.423,13.856 C509.423,16.511 508.457,18.877 506.471,20.77 C504.568,22.72 502.144,23.692 499.374,23.692 L499.374,23.692 Z M554.323,24.684 L539.584,24.684 L557.341,-0.139 L578.377,-0.139 L554.323,24.684 L554.323,24.684 Z M553.982,44.99 C546.894,44.99 540.959,47.504 535.847,52.712 C530.685,57.922 528.221,64.05 528.221,71.47 C528.221,76.183 529.392,80.635 531.687,84.686 C533.975,88.742 537.11,91.9 541.034,94.094 C544.923,96.277 549.309,97.409 553.982,97.409 C558.68,97.409 563.033,96.277 566.964,94.094 C570.833,91.9 573.979,88.742 576.315,84.686 C578.604,80.622 579.781,76.183 579.781,71.47 C579.781,64.05 577.291,57.922 572.1,52.738 C566.964,47.504 561.053,44.99 553.982,44.99 L553.982,44.99 Z M104.791,44.879 C100.038,44.879 95.694,46.018 91.691,48.313 C87.74,50.591 84.543,53.811 82.156,57.972 C79.793,62.102 78.572,66.554 78.572,71.162 C78.572,75.748 79.793,80.189 82.213,84.392 C84.563,88.552 87.807,91.855 91.806,94.186 C99.854,98.83 109.697,98.765 117.971,94.186 C122.118,91.9 125.322,88.742 127.542,84.834 C129.748,80.887 130.897,76.38 130.897,71.444 C130.897,63.778 128.422,57.559 123.319,52.453 C118.256,47.363 112.204,44.879 104.791,44.879 L104.791,44.879 Z M357.429,44.879 C352.713,44.879 348.291,46.018 344.311,48.313 C340.357,50.591 337.149,53.811 334.799,57.972 C332.426,62.102 331.231,66.554 331.231,71.162 C331.231,75.722 332.426,80.163 334.821,84.392 C337.182,88.552 340.436,91.855 344.428,94.186 C352.477,98.83 362.352,98.765 370.57,94.186 C374.715,91.9 377.941,88.742 380.148,84.834 C382.423,80.887 383.516,76.38 383.516,71.444 C383.516,63.778 381.038,57.559 375.972,52.453 C370.928,47.363 364.804,44.879 357.429,44.879 L357.429,44.879 Z M60.033,108.96 L-0.116,108.96 L-0.116,8.181 L60.404,8.181 L60.404,22.269 L14.357,22.269 L14.357,47.694 L60.033,47.694 L60.033,61.824 L14.357,61.824 L14.357,94.859 L60.033,94.859 L60.033,108.96 L60.033,108.96 Z M492.429,33.175 L506.445,33.175 L506.445,108.96 L492.429,108.96 L492.429,33.175 Z M670.496,108.96 L656.454,108.96 L656.454,72.727 C656.454,62.796 655.924,58.606 655.499,56.859 C654.523,52.685 652.707,49.56 650.187,47.53 C647.565,45.518 644.033,44.44 639.735,44.44 C634.658,44.44 630.236,46.094 626.182,49.426 C622.158,52.738 619.468,56.888 618.182,61.824 C617.363,65.094 616.938,71.411 616.938,80.556 L616.938,108.96 L602.923,108.96 L602.923,33.175 L616.938,33.175 L616.938,41.934 C619.685,39.188 622.653,36.945 625.769,35.26 C630.594,32.67 635.87,31.364 641.555,31.364 C647.411,31.364 652.651,32.841 657.178,35.8 C661.74,38.765 665.145,42.774 667.305,47.747 C669.402,52.659 670.496,59.955 670.496,70.026 L670.496,108.96 L670.496,108.96 Z M103.74,110.793 C92.929,110.793 83.6,106.882 75.944,99.128 C68.305,91.43 64.463,81.921 64.463,70.854 C64.463,60.037 68.331,50.649 76.075,42.958 C83.734,35.26 93.174,31.364 103.995,31.364 C110.293,31.364 116.037,32.677 121.186,35.351 C124.449,37.033 127.506,39.318 130.301,42.163 L130.301,5.743 L144.195,5.743 L144.195,108.96 L130.301,108.96 L130.301,100.336 C127.313,103.092 124.049,105.354 120.665,107.029 C115.517,109.517 109.841,110.793 103.74,110.793 L103.74,110.793 Z M189.758,110.793 C182.359,110.793 176.026,109.262 170.96,106.227 C165.89,103.177 162.021,98.886 159.533,93.442 C157.046,88.045 155.838,80.301 155.838,69.768 L155.838,33.175 L169.84,33.175 L169.84,68.701 C169.84,76.589 170.256,81.996 171.101,84.821 C172.227,88.644 174.423,91.612 177.712,93.838 C181.041,96.064 185.09,97.19 189.711,97.19 C194.372,97.19 198.379,96.097 201.537,93.949 C204.752,91.754 206.902,88.988 208.126,85.417 C208.683,83.715 209.373,79.411 209.373,68.701 L209.373,33.175 L223.563,33.175 L223.563,70.423 C223.563,80.687 222.384,88.222 219.902,93.544 C217.383,98.922 213.549,103.177 208.512,106.227 C203.488,109.262 197.188,110.793 189.758,110.793 L189.758,110.793 Z M274.59,110.793 C262.656,110.793 252.532,106.957 244.621,99.419 C236.674,91.855 232.674,82.52 232.674,71.66 C232.674,64.394 234.523,57.54 238.232,51.298 C241.977,45.026 247.145,40.101 253.596,36.604 C260.08,33.112 267.363,31.364 275.333,31.364 C280.328,31.364 285.23,32.114 289.879,33.636 C294.546,35.151 298.559,37.155 301.845,39.596 C305.154,42.103 308.044,45.298 310.303,49.104 L311.521,51.059 L300.336,57.922 L299.043,56.211 C293.093,48.421 285.23,44.67 274.977,44.67 C266.754,44.67 260.146,47.186 254.804,52.371 C249.377,57.5 246.815,63.604 246.815,70.979 C246.815,75.722 248.019,80.235 250.461,84.444 C252.902,88.588 256.3,91.855 260.548,94.186 C264.803,96.486 269.674,97.661 275.031,97.661 C284.926,97.661 292.805,93.878 299.089,86.068 L300.435,84.392 L311.599,91.645 L310.247,93.586 C306.631,99.049 301.639,103.324 295.466,106.313 C289.378,109.262 282.341,110.793 274.59,110.793 L274.59,110.793 Z M356.398,110.793 C345.577,110.793 336.219,106.882 328.573,99.128 C320.986,91.43 317.088,81.921 317.088,70.854 C317.088,60.066 321.009,50.649 328.682,42.958 C336.416,35.26 345.797,31.364 356.65,31.364 C362.944,31.364 368.686,32.677 373.801,35.351 C377.078,37.033 380.148,39.318 382.93,42.163 L382.93,33.175 L396.824,33.175 L396.824,108.96 L382.93,108.96 L382.93,100.336 C379.932,103.092 376.708,105.354 373.258,107.029 C368.139,109.517 362.45,110.793 356.398,110.793 L356.398,110.793 Z M448.091,110.793 C436.118,110.793 426.037,106.957 418.129,99.419 C410.176,91.855 406.172,82.52 406.172,71.66 C406.172,64.394 408.005,57.54 411.743,51.298 C415.432,45.026 420.607,40.101 427.098,36.604 C433.542,33.112 440.855,31.364 448.824,31.364 C453.825,31.364 458.702,32.114 463.367,33.636 C467.998,35.151 472.047,37.155 475.35,39.596 C478.672,42.103 481.49,45.298 483.84,49.104 L485.058,51.059 L473.854,57.922 L472.538,56.211 C466.62,48.421 458.745,44.67 448.471,44.67 C440.266,44.67 433.644,47.186 428.266,52.371 C422.911,57.5 420.276,63.604 420.276,70.979 C420.276,75.722 421.536,80.235 423.984,84.444 C426.41,88.588 429.762,91.855 433.997,94.186 C438.311,96.486 443.185,97.661 448.536,97.661 C458.404,97.661 466.273,93.878 472.565,86.068 L473.923,84.392 L485.087,91.645 L483.752,93.586 C480.103,99.049 475.11,103.324 468.974,106.313 C462.872,109.262 455.861,110.793 448.091,110.793 L448.091,110.793 Z M554.032,110.793 C542.315,110.793 532.639,106.793 525.216,98.898 C517.785,91.066 514.055,81.764 514.055,71.287 C514.055,60.865 517.609,51.733 524.61,44.087 C532.341,35.633 542.242,31.364 554.032,31.364 C565.743,31.364 575.611,35.633 583.369,44.015 C590.383,51.667 593.941,60.826 593.941,71.287 C593.941,81.764 590.171,91.066 582.773,98.898 C575.344,106.793 565.665,110.793 554.032,110.793 L554.032,110.793 Z" id="Fill-5" sketch:type="MSShapeGroup"></path>
        </g>
    </g>
</svg>