<?xml version="1.0" encoding="UTF-8" standalone="no"?>
<svg width="459px" height="132px" viewBox="0 0 459 132" version="1.1" xmlns="http://www.w3.org/2000/svg" xmlns:xlink="http://www.w3.org/1999/xlink" xmlns:sketch="http://www.bohemiancoding.com/sketch/ns">
    <!-- Generator: Sketch 3.0.4 (8054) - http://www.bohemiancoding.com/sketch -->
    <title>Imported Layers</title>
    <desc>Created with Sketch.</desc>
    <defs></defs>
    <g id="Page-1" stroke="none" stroke-width="1" fill="none" fill-rule="evenodd" sketch:type="MSPage">
        <g id="Imported-Layers" sketch:type="MSLayerGroup" transform="translate(1.000000, 0.000000)" fill="#FFFFFF">
            <path d="M131.16,124.502 C131.16,128.286 128.098,131.353 124.31,131.353 L6.711,131.353 C2.928,131.353 -0.141,128.286 -0.141,124.502 L-0.141,6.898 C-0.141,3.119 2.928,0.047 6.711,0.047 L124.31,0.047 C128.098,0.047 131.16,3.119 131.16,6.898 L131.16,124.502 Z M125.766,63.981 C125.766,96.644 99.281,123.119 66.627,123.119 C33.964,123.119 7.481,96.644 7.481,63.981 C7.481,31.318 33.964,4.842 66.627,4.842 C99.281,4.842 125.766,31.318 125.766,63.981 Z" id="Fill-1" sketch:type="MSShapeGroup"></path>
            <path d="M127.696,69.632 C127.696,101.477 101.882,127.283 70.041,127.283 C38.203,127.283 12.394,101.477 12.394,69.632 C12.394,37.79 38.203,11.988 70.041,11.988 C101.882,11.988 127.696,37.79 127.696,69.632" id="Fill-3" sketch:type="MSShapeGroup"></path>
            <path d="M146.287,4.753 L167.689,4.753 L167.689,8.898 L150.986,8.898 L150.986,23.694 L167.547,23.694 L167.547,27.838 L150.986,27.838 L150.986,46.787 L146.287,46.787 L146.287,4.753" id="Fill-4" sketch:type="MSShapeGroup"></path>
            <path d="M175.474,4.753 L175.474,31.396 C175.474,34.595 175.499,37.011 177.466,39.837 C178.921,41.988 181.691,43.408 184.801,43.408 C187.803,43.408 190.58,42.013 191.998,39.908 C193.972,37.102 193.972,34.685 193.972,31.396 L193.972,4.753 L198.664,4.753 L198.664,31.396 C198.693,36.276 198.081,41.109 193.897,44.323 C191.547,46.307 188.424,47.551 184.76,47.551 C181.849,47.551 178.155,46.651 175.553,44.339 C171.099,40.765 170.752,35.992 170.774,31.396 L170.774,4.753 L175.474,4.753" id="Fill-5" sketch:type="MSShapeGroup"></path>
            <path d="M234.459,39.837 L234.384,4.753 L238.911,4.753 L238.911,46.787 L234.399,46.787 L209.469,11.42 L209.559,46.787 L205.018,46.787 L205.018,4.753 L209.769,4.753 L234.459,39.837" id="Fill-6" sketch:type="MSShapeGroup"></path>
            <path d="M245.434,4.753 L257.978,4.753 C263.962,4.753 270.283,6.039 274.541,11.068 C277.934,14.778 279.579,19.746 279.579,25.735 C279.579,38.377 272.377,46.787 258.232,46.787 L245.434,46.787 L245.434,4.753 L245.434,4.753 Z M250.135,42.629 L258.443,42.629 C269.227,42.629 274.877,35.977 274.877,25.854 C274.877,20.969 273.54,16.711 270.778,13.634 C268.144,10.783 264.195,8.898 258.459,8.898 L250.135,8.898 L250.135,42.629 L250.135,42.629 Z" id="Fill-7" sketch:type="MSShapeGroup"></path>
            <path d="M282.957,46.787 L277.88,46.787 L295.427,4.753 L299.958,4.753 L317.332,46.787 L312.22,46.787 L307.375,34.962 L287.805,34.962 L282.957,46.787 L282.957,46.787 Z M297.497,10.062 L289.157,31.127 L305.95,31.127 L297.497,10.062 L297.497,10.062 Z" id="Fill-8" sketch:type="MSShapeGroup"></path>
            <path d="M356.863,35.467 C354.14,41.988 346.797,47.551 337.531,47.551 C325.146,47.551 315.627,37.957 315.627,25.76 C315.627,13.761 324.906,4.002 337.531,4.002 C347.891,4.033 354.462,10.938 356.893,16.314 L351.819,16.314 C350.377,13.787 345.654,8.184 337.487,8.152 C327.66,8.152 320.311,15.971 320.311,25.735 C320.311,35.614 327.758,43.408 337.531,43.408 C346.293,43.408 350.827,37.051 351.819,35.467 L356.863,35.467" id="Fill-9" sketch:type="MSShapeGroup"></path>
            <path d="M360.752,4.753 L365.46,4.753 L365.46,46.787 L360.752,46.787 L360.752,4.753 Z" id="Fill-10" sketch:type="MSShapeGroup"></path>
            <path d="M369.724,25.878 C369.724,12.928 379.725,4.002 391.613,4.002 C403.985,4.002 413.565,13.455 413.565,25.767 C413.565,38.077 403.985,47.551 391.613,47.551 C379.173,47.551 369.724,37.957 369.724,25.946 L369.724,25.878 L369.724,25.878 Z M374.406,25.735 C374.406,35.602 381.832,43.341 391.696,43.341 C401.614,43.341 408.864,35.301 408.864,25.735 C408.864,16.142 401.614,8.088 391.644,8.088 C381.72,8.088 374.406,15.939 374.406,25.668 L374.406,25.735 L374.406,25.735 Z" id="Fill-11" sketch:type="MSShapeGroup"></path>
            <path d="M447.408,39.837 L447.349,4.753 L451.88,4.753 L451.88,46.787 L447.349,46.787 L422.425,11.42 L422.483,46.787 L417.949,46.787 L417.949,4.753 L422.747,4.753 L447.408,39.837" id="Fill-12" sketch:type="MSShapeGroup"></path>
            <path d="M150.405,80.754 C151.019,86.947 155.527,88.235 157.809,88.235 C161.689,88.235 165.23,85.268 165.23,81.16 C165.23,75.944 160.783,74.809 156.512,73.378 C153.482,72.501 147,70.589 147,63.594 C146.9,56.989 152.401,53.35 158.023,53.35 C162.66,53.35 167.977,55.908 168.564,62.934 L164.449,62.934 C164.027,60.531 162.823,56.865 157.881,56.865 C154.178,56.865 151.128,59.401 151.128,63.221 C151.102,67.755 154.719,68.864 160.336,70.731 C163.824,72.084 169.369,74.072 169.369,80.889 C169.369,86.927 164.83,91.773 157.894,91.773 C151.691,91.773 146.535,87.854 146.287,80.754 L150.405,80.754" id="Fill-13" sketch:type="MSShapeGroup"></path>
            <path d="M179.277,54.012 L179.277,77.505 C179.277,80.344 179.303,82.457 181.035,84.97 C182.322,86.848 184.761,88.092 187.502,88.092 C190.171,88.092 192.613,86.878 193.865,85.015 C195.602,82.547 195.602,80.406 195.602,77.505 L195.602,54.012 L199.752,54.012 L199.752,77.505 C199.781,81.809 199.242,86.085 195.541,88.923 C193.461,90.672 190.707,91.773 187.471,91.773 C184.898,91.773 181.641,90.979 179.361,88.949 C175.422,85.776 175.109,81.571 175.14,77.505 L175.14,54.012 L179.277,54.012" id="Fill-14" sketch:type="MSShapeGroup"></path>
            <path d="M216.953,54.012 C222.16,54.012 224.616,54.631 226.926,56.391 C229.356,58.254 230.879,61.71 230.879,65.192 C230.879,68.69 229.313,72.243 227.069,73.967 C224.578,75.898 222.055,76.522 217.295,76.522 L211.299,76.522 L211.299,91.089 L207.144,91.089 L207.144,54.012 L216.953,54.012 L216.953,54.012 Z M211.299,72.847 L217.246,72.847 C220.302,72.847 222.253,72.519 224.076,71.291 C225.712,70.242 226.876,67.893 226.876,65.277 C226.876,62.602 225.666,60.274 224.043,59.224 C222.214,57.995 220.271,57.683 217.12,57.683 L211.299,57.683 L211.299,72.847 L211.299,72.847 Z" id="Fill-15" sketch:type="MSShapeGroup"></path>
            <path d="M235.05,54.012 L255.63,54.012 L255.63,57.683 L239.202,57.683 L239.202,70.539 L255.511,70.539 L255.511,74.195 L239.202,74.195 L239.202,87.422 L255.63,87.422 L255.63,91.089 L235.05,91.089 L235.05,54.012" id="Fill-16" sketch:type="MSShapeGroup"></path>
            <path d="M262.06,54.012 L271.735,54.012 C277.513,54.012 280.252,54.695 282.148,55.934 C285.187,57.727 287.207,61.66 287.207,65.882 C287.271,68.368 286.532,71.049 285.036,73.134 C282.808,76.166 280.122,76.87 276.734,77.232 L285.934,91.089 L281.421,91.089 L270.953,74.909 L272.172,74.909 C274.781,74.909 278.423,74.85 280.415,73.006 C282.361,71.113 283.194,68.819 283.194,66.198 C283.194,63.399 281.866,60.517 279.547,59.015 C277.685,57.816 275.353,57.683 272.032,57.683 L266.202,57.683 L266.202,91.089 L262.06,91.089 L262.06,54.012" id="Fill-17" sketch:type="MSShapeGroup"></path>
            <path d="M293.83,91.089 L289.357,91.089 L304.863,54.012 L308.865,54.012 L324.21,91.089 L319.685,91.089 L315.395,80.664 L298.12,80.664 L293.83,91.089 L293.83,91.089 Z M306.716,58.68 L299.354,77.287 L314.142,77.287 L306.716,58.68 L306.716,58.68 Z" id="Fill-18" sketch:type="MSShapeGroup"></path>
            <path d="M361.098,81.097 C358.709,86.848 352.249,91.773 344.069,91.773 C333.103,91.773 324.734,83.29 324.734,72.53 C324.734,61.968 332.908,53.35 344.021,53.35 C353.201,53.378 358.987,59.461 361.152,64.207 L356.678,64.207 C355.381,61.977 351.209,57.039 344.021,57.004 C335.341,57.004 328.877,63.895 328.877,72.519 C328.877,81.25 335.425,88.092 344.021,88.092 C351.811,88.092 355.766,82.493 356.678,81.097 L361.098,81.097" id="Fill-19" sketch:type="MSShapeGroup"></path>
            <path d="M366.596,54.012 L370.739,54.012 L370.739,91.089 L366.596,91.089 L366.596,54.012 Z" id="Fill-20" sketch:type="MSShapeGroup"></path>
            <path d="M376.529,72.65 C376.529,61.234 385.367,53.35 395.875,53.35 C406.745,53.35 415.222,61.696 415.222,72.55 C415.222,83.409 406.778,91.773 395.841,91.773 C384.863,91.773 376.529,83.29 376.529,72.688 L376.529,72.65 L376.529,72.65 Z M380.656,72.519 C380.656,81.22 387.26,88.037 395.904,88.037 C404.704,88.037 411.079,80.963 411.079,72.519 C411.079,64.049 404.704,56.955 395.875,56.955 C387.132,56.955 380.656,63.866 380.656,72.471 L380.656,72.519 L380.656,72.519 Z" id="Fill-21" sketch:type="MSShapeGroup"></path>
            <path d="M447.175,84.954 L447.092,54.012 L451.102,54.012 L451.102,91.089 L447.111,91.089 L425.099,59.894 L425.185,91.089 L421.161,91.089 L421.161,54.012 L425.367,54.012 L447.175,84.954" id="Fill-22" sketch:type="MSShapeGroup"></path>
            <path d="M146.287,98.817 L155.654,98.817 C160.138,98.817 164.85,99.783 167.992,103.542 C170.523,106.297 171.742,110.004 171.742,114.456 C171.742,123.878 166.396,130.136 155.853,130.136 L146.287,130.136 L146.287,98.817 L146.287,98.817 Z M149.785,127.05 L156.002,127.05 C164.032,127.05 168.253,122.082 168.253,114.551 C168.253,110.905 167.242,107.734 165.207,105.44 C163.211,103.32 160.277,101.918 156.027,101.918 L149.785,101.918 L149.785,127.05 L149.785,127.05 Z" id="Fill-23" sketch:type="MSShapeGroup"></path>
            <path d="M177.047,98.817 L194.377,98.817 L194.377,101.918 L180.539,101.918 L180.539,112.783 L194.298,112.783 L194.298,115.878 L180.539,115.878 L180.539,127.05 L194.377,127.05 L194.377,130.136 L177.047,130.136 L177.047,98.817" id="Fill-24" sketch:type="MSShapeGroup"></path>
            <path d="M212.152,98.817 L215.674,98.817 L215.674,127.05 L227.579,127.05 L227.579,130.136 L212.152,130.136 L212.152,98.817" id="Fill-25" sketch:type="MSShapeGroup"></path>
            <path d="M233.296,130.136 L229.521,130.136 L242.63,98.817 L245.999,98.817 L258.958,130.136 L255.168,130.136 L251.532,121.328 L236.938,121.328 L233.296,130.136 L233.296,130.136 Z M244.18,102.771 L237.963,118.475 L250.473,118.475 L244.18,102.771 L244.18,102.771 Z" id="Fill-26" sketch:type="MSShapeGroup"></path>
            <path d="M282.555,98.817 C286.958,98.817 289.059,99.342 290.997,100.812 C293.037,102.394 294.31,105.327 294.31,108.277 C294.31,111.227 293.018,114.219 291.101,115.676 C289.015,117.301 286.9,117.831 282.851,117.831 L277.789,117.831 L277.789,130.136 L274.291,130.136 L274.291,98.817 L282.555,98.817 L282.555,98.817 Z M277.789,114.74 L282.808,114.74 C285.398,114.74 287.048,114.456 288.58,113.422 C289.966,112.54 290.934,110.539 290.934,108.333 C290.934,106.077 289.945,104.116 288.555,103.221 C287.004,102.206 285.398,101.918 282.723,101.918 L277.789,101.918 L277.789,114.74 L277.789,114.74 Z" id="Fill-27" sketch:type="MSShapeGroup"></path>
            <path d="M296.967,114.562 C296.967,104.909 304.447,98.262 313.32,98.262 C322.476,98.262 329.649,105.308 329.649,114.492 C329.649,123.661 322.489,130.695 313.294,130.695 C304.021,130.695 296.967,123.558 296.967,114.61 L296.967,114.562 L296.967,114.562 Z M300.463,114.456 C300.463,121.813 306.033,127.569 313.341,127.569 C320.766,127.569 326.161,121.591 326.161,114.456 C326.161,107.299 320.766,101.303 313.32,101.303 C305.943,101.303 300.463,107.149 300.463,114.427 L300.463,114.456 L300.463,114.456 Z" id="Fill-28" sketch:type="MSShapeGroup"></path>
            <path d="M334.86,98.817 L343.109,98.817 C345.978,98.817 347.89,99.342 349.316,100.273 C351.829,101.756 352.706,104.356 352.706,106.802 C352.706,110.483 350.6,112.383 348.524,113.487 C354.162,115.195 354.494,119.999 354.494,121.418 C354.484,124.806 352.907,127.36 350.231,128.761 C348.386,129.869 346.577,130.136 343.496,130.136 L334.86,130.136 L334.86,98.817 L334.86,98.817 Z M338.378,112.351 L343.109,112.351 C344.512,112.351 345.812,112.207 346.78,111.718 C348.771,110.607 349.316,108.959 349.316,107.08 C349.316,104.802 348.082,103.207 346.78,102.631 C345.978,102.206 344.928,101.936 342.916,101.918 L338.378,101.918 L338.378,112.351 L338.378,112.351 Z M338.378,127.05 L344.021,127.05 C345.268,127.05 346.696,126.907 347.831,126.476 C349.697,125.667 351.08,124.054 351.125,121.233 C351.125,118.692 349.798,116.831 347.785,115.947 C346.363,115.372 345.294,115.352 343.422,115.352 L338.378,115.352 L338.378,127.05 L338.378,127.05 Z" id="Fill-29" sketch:type="MSShapeGroup"></path>
            <path d="M359.556,98.817 L367.751,98.817 C372.63,98.817 374.925,99.406 376.505,100.443 C379.096,101.968 380.794,105.287 380.794,108.85 C380.858,110.949 380.239,113.213 378.986,114.969 C377.094,117.523 374.824,118.127 371.947,118.434 L379.725,130.136 L375.904,130.136 L367.067,116.482 L368.117,116.482 C370.287,116.482 373.358,116.413 375.048,114.869 C376.708,113.272 377.406,111.341 377.406,109.122 C377.406,106.753 376.262,104.307 374.325,103.058 C372.749,102.038 370.812,101.918 367.97,101.918 L363.035,101.918 L363.035,130.136 L359.556,130.136 L359.556,98.817" id="Fill-30" sketch:type="MSShapeGroup"></path>
            <path d="M385.462,98.817 L402.83,98.817 L402.83,101.918 L388.949,101.918 L388.949,112.783 L402.72,112.783 L402.72,115.878 L388.949,115.878 L388.949,127.05 L402.83,127.05 L402.83,130.136 L385.462,130.136 L385.462,98.817" id="Fill-31" sketch:type="MSShapeGroup"></path>
            <path d="M410.654,127.05 L426.361,127.05 L426.361,130.136 L406.428,130.136 L406.428,127.893 L421.799,101.918 L406.041,101.918 L406.041,98.817 L425.783,98.817 L425.783,101.482 L410.654,127.05" id="Fill-32" sketch:type="MSShapeGroup"></path>
            <path d="M432.159,130.136 L428.416,130.136 L441.473,98.817 L444.871,98.817 L457.821,130.136 L453.991,130.136 L450.36,121.328 L435.79,121.328 L432.159,130.136 L432.159,130.136 Z M443.054,102.771 L436.797,118.475 L449.28,118.475 L443.054,102.771 L443.054,102.771 Z" id="Fill-33" sketch:type="MSShapeGroup"></path>
        </g>
    </g>
</svg>