<?xml version="1.0" encoding="UTF-8" standalone="no"?>
<svg width="920px" height="262px" viewBox="0 0 920 262" version="1.1" xmlns="http://www.w3.org/2000/svg" xmlns:xlink="http://www.w3.org/1999/xlink" xmlns:sketch="http://www.bohemiancoding.com/sketch/ns">
    <!-- Generator: Sketch 3.0.4 (8054) - http://www.bohemiancoding.com/sketch -->
    <title>Imported Layers</title>
    <desc>Created with Sketch.</desc>
    <defs></defs>
    <g id="Page-1" stroke="none" stroke-width="1" fill="none" fill-rule="evenodd" sketch:type="MSPage">
        <g id="Imported-Layers" sketch:type="MSLayerGroup" fill="#FFFFFF">
            <path d="M281.396,25.409 C281.396,18.487 286.508,13.374 293.43,13.374 C300.352,13.374 305.459,18.487 305.459,25.409 C305.459,32.325 300.352,37.439 293.43,37.439 C286.508,37.439 281.396,32.325 281.396,25.409 M293.43,199.872 C288.615,199.872 284.404,195.962 284.404,190.849 L284.404,70.526 C284.404,65.415 288.615,61.501 293.43,61.501 C298.543,61.501 302.455,65.415 302.455,70.526 L302.455,190.849 C302.455,195.962 298.543,199.872 293.43,199.872" id="Fill-1" sketch:type="MSShapeGroup"></path>
            <path d="M293.43,200.946 C287.859,200.946 283.334,196.413 283.334,190.849 L283.334,70.526 C283.334,64.96 287.859,60.433 293.43,60.433 C299.09,60.433 303.527,64.866 303.527,70.526 L303.527,190.849 C303.527,196.509 299.09,200.946 293.43,200.946 M293.43,62.575 C289.045,62.575 285.477,66.142 285.477,70.526 L285.477,190.849 C285.477,195.235 289.045,198.802 293.43,198.802 C297.963,198.802 301.383,195.382 301.383,190.849 L301.383,70.526 C301.383,65.993 297.963,62.575 293.43,62.575 M293.43,38.513 C285.959,38.513 280.326,32.878 280.326,25.407 C280.326,17.938 285.959,12.304 293.43,12.304 C300.9,12.304 306.529,17.938 306.529,25.407 C306.529,32.878 300.9,38.513 293.43,38.513 M293.43,14.446 C287.076,14.446 282.469,19.056 282.469,25.407 C282.469,31.757 287.076,36.368 293.43,36.368 C299.779,36.368 304.387,31.757 304.387,25.407 C304.387,19.056 299.779,14.446 293.43,14.446" id="Fill-2" sketch:type="MSShapeGroup"></path>
            <path d="M340.957,159.563 L340.957,101.81 C340.957,80.155 358.404,62.706 380.06,62.706 L410.141,62.706 C415.256,62.706 419.166,66.616 419.166,71.729 L419.166,220.929 C419.166,236.874 409.842,251.011 395.104,257.024 C380.363,263.04 364.119,259.733 352.389,248.603 C350.582,246.798 349.68,244.694 349.68,241.985 C349.68,239.577 350.582,237.472 352.389,235.97 C354.193,234.163 356.297,233.261 358.703,233.261 C361.412,233.261 363.518,234.163 365.322,235.97 C371.34,241.985 380.06,243.79 388.182,240.479 C396.303,237.173 401.117,229.351 401.117,220.929 L401.117,198.667 L380.06,198.667 C358.404,198.667 340.957,181.224 340.957,159.563 M359.008,101.81 L359.008,159.563 C359.008,171.296 368.332,180.618 380.06,180.618 L401.117,180.618 L401.117,80.755 L380.06,80.755 C368.332,80.755 359.008,90.079 359.008,101.81" id="Fill-3" sketch:type="MSShapeGroup"></path>
            <path d="M380.174,261.06 C369.719,261.06 359.59,256.911 351.652,249.38 C349.598,247.331 348.609,244.917 348.609,241.985 C348.609,239.194 349.68,236.829 351.705,235.145 C353.635,233.206 356.014,232.19 358.705,232.19 C361.635,232.19 364.045,233.179 366.084,235.212 C369.844,238.974 374.779,241.044 379.982,241.048 L379.984,241.048 C382.619,241.048 385.24,240.522 387.779,239.489 C395.23,236.45 400.047,229.167 400.047,220.929 L400.047,199.743 L380.062,199.743 C357.908,199.743 339.885,181.718 339.885,159.561 L339.885,101.81 C339.885,79.657 357.908,61.636 380.062,61.636 L410.143,61.636 C415.805,61.636 420.238,66.067 420.238,71.729 L420.238,220.929 C420.238,237.329 410.531,251.89 395.508,258.017 C390.559,260.034 385.402,261.06 380.174,261.06 L380.174,261.06 Z M358.705,234.333 C356.576,234.333 354.756,235.116 353.144,236.727 C351.557,238.058 350.752,239.851 350.752,241.985 C350.752,244.352 351.512,246.214 353.144,247.845 C360.666,254.978 370.269,258.917 380.174,258.917 C385.121,258.917 390.012,257.946 394.699,256.032 C408.91,250.233 418.096,236.45 418.096,220.929 L418.096,71.729 C418.096,67.196 414.674,63.778 410.143,63.778 L380.062,63.778 C359.09,63.778 342.029,80.839 342.029,101.81 L342.029,159.561 C342.029,180.538 359.09,197.601 380.062,197.601 L402.19,197.601 L402.19,220.929 C402.19,230.044 396.852,238.108 388.588,241.472 C385.791,242.612 382.896,243.19 379.984,243.19 L379.982,243.19 C374.209,243.188 368.734,240.895 364.568,236.727 C362.932,235.095 361.072,234.333 358.705,234.333 L358.705,234.333 Z M402.19,181.692 L380.062,181.692 C367.656,181.692 357.938,171.974 357.938,159.561 L357.938,101.81 C357.938,89.403 367.656,79.683 380.062,79.683 L402.19,79.683 L402.19,181.692 L402.19,181.692 Z M380.062,81.827 C368.854,81.827 360.082,90.604 360.082,101.81 L360.082,159.561 C360.082,170.77 368.854,179.548 380.062,179.548 L400.047,179.548 L400.047,81.827 L380.062,81.827 L380.062,81.827 Z" id="Fill-4" sketch:type="MSShapeGroup"></path>
            <path d="M457.672,159.563 L457.672,70.526 C457.672,65.411 461.582,61.503 466.693,61.503 C471.807,61.503 475.717,65.411 475.717,70.526 L475.717,159.563 C475.717,171.296 485.041,180.62 496.775,180.62 L517.83,180.62 L517.83,70.526 C517.83,65.411 521.744,61.503 526.856,61.503 C531.969,61.503 535.879,65.411 535.879,70.526 L535.879,189.646 C535.879,194.759 531.969,198.671 526.856,198.671 L496.775,198.671 C475.121,198.671 457.672,181.222 457.672,159.563" id="Fill-5" sketch:type="MSShapeGroup"></path>
            <path d="M526.856,199.741 L496.775,199.741 C474.623,199.741 456.6,181.718 456.6,159.563 L456.6,70.526 C456.6,64.866 461.035,60.433 466.693,60.433 C472.354,60.433 476.789,64.866 476.789,70.526 L476.789,159.563 C476.789,170.769 485.568,179.548 496.775,179.548 L516.76,179.548 L516.76,70.526 C516.76,64.866 521.195,60.433 526.856,60.433 C532.514,60.433 536.949,64.866 536.949,70.526 L536.949,189.646 C536.949,195.308 532.514,199.741 526.856,199.741 M466.693,62.575 C462.16,62.575 458.744,65.993 458.744,70.526 L458.744,159.563 C458.744,180.536 475.803,197.599 496.775,197.599 L526.856,197.599 C531.389,197.599 534.807,194.179 534.807,189.646 L534.807,70.526 C534.807,65.993 531.389,62.575 526.856,62.575 C522.322,62.575 518.902,65.993 518.902,70.526 L518.902,181.692 L496.775,181.692 C484.365,181.692 474.646,171.972 474.646,159.563 L474.646,70.526 C474.646,65.993 471.227,62.575 466.693,62.575" id="Fill-6" sketch:type="MSShapeGroup"></path>
            <path d="M626.125,100.007 C626.125,91.585 621.01,84.362 613.494,81.056 C605.367,77.747 596.945,79.552 591.229,85.567 C589.426,87.372 587.32,88.274 584.611,88.274 C582.207,88.274 580.102,87.372 578.295,85.567 C576.49,83.763 575.588,81.657 575.588,79.251 C575.588,76.542 576.49,74.438 578.295,72.933 C589.426,61.804 605.969,58.495 620.408,64.511 C634.85,70.526 644.172,84.362 644.172,100.007 L644.172,189.646 C644.172,194.759 639.961,198.671 635.148,198.671 L605.068,198.671 C583.412,198.671 565.963,181.224 565.963,159.563 C565.963,137.903 583.412,120.462 605.068,120.462 L626.125,120.462 L626.125,100.007 L626.125,100.007 Z M605.068,180.62 L626.125,180.62 L626.125,138.511 L605.068,138.511 C593.334,138.511 584.012,147.833 584.012,159.563 C584.012,171.296 593.334,180.62 605.068,180.62 L605.068,180.62 Z" id="Fill-7" sketch:type="MSShapeGroup"></path>
            <path d="M635.148,199.739 L605.068,199.739 C582.914,199.739 564.891,181.718 564.891,159.563 C564.891,137.413 582.914,119.39 605.068,119.39 L625.053,119.39 L625.053,100.007 C625.053,92.177 620.459,85.29 613.063,82.038 C605.617,79.007 597.387,80.646 592.006,86.308 C589.957,88.358 587.543,89.347 584.611,89.347 C581.922,89.347 579.543,88.329 577.537,86.325 C575.531,84.321 574.518,81.936 574.518,79.251 C574.518,76.224 575.555,73.821 577.607,72.112 C585.082,64.63 595.06,60.476 605.631,60.476 C610.859,60.476 615.969,61.501 620.822,63.52 C635.658,69.702 645.244,84.024 645.244,100.007 L645.244,189.644 C645.244,195.212 640.715,199.739 635.148,199.739 L635.148,199.739 Z M605.068,121.532 C584.098,121.532 567.035,138.593 567.035,159.563 C567.035,180.534 584.098,197.597 605.068,197.597 L635.148,197.597 C639.533,197.597 643.102,194.03 643.102,189.644 L643.102,100.007 C643.102,84.888 634.033,71.347 619.996,65.503 C615.408,63.589 610.574,62.618 605.631,62.618 C595.635,62.618 586.191,66.552 579.051,73.69 C577.422,75.06 576.66,76.856 576.66,79.251 C576.66,81.38 577.443,83.198 579.051,84.81 C580.664,86.421 582.482,87.204 584.611,87.204 C586.979,87.204 588.84,86.444 590.471,84.81 C596.422,78.542 605.56,76.663 613.894,80.061 C621.986,83.624 627.195,91.446 627.195,100.007 L627.195,121.532 L605.068,121.532 L605.068,121.532 Z M627.195,181.69 L605.068,181.69 C592.66,181.69 582.94,171.972 582.94,159.563 C582.94,147.157 592.66,137.438 605.068,137.438 L627.195,137.438 L627.195,181.69 L627.195,181.69 Z M605.068,139.581 C593.861,139.581 585.082,148.358 585.082,159.563 C585.082,170.77 593.861,179.546 605.068,179.546 L625.053,179.546 L625.053,139.581 L605.068,139.581 L605.068,139.581 Z" id="Fill-8" sketch:type="MSShapeGroup"></path>
            <path d="M682.977,170.093 L682.977,10.37 C682.977,5.253 687.187,1.345 692,1.345 C697.117,1.345 701.023,5.253 701.023,10.37 L701.023,170.093 C701.023,175.808 704.033,180.321 708.55,183.026 C713.058,185.435 714.563,190.849 711.856,195.362 C709.448,199.874 704.033,201.075 699.521,198.671 C689.594,192.653 682.977,181.823 682.977,170.093" id="Fill-9" sketch:type="MSShapeGroup"></path>
            <path d="M704.256,200.956 C702.473,200.956 700.662,200.491 699.018,199.616 C688.443,193.206 681.904,181.905 681.904,170.091 L681.904,10.368 C681.904,4.8 686.434,0.271 692,0.271 C697.66,0.271 702.096,4.706 702.096,10.368 L702.096,170.091 C702.096,175.132 704.582,179.399 709.099,182.108 C711.485,183.382 713.218,185.511 713.929,188.075 C714.647,190.686 714.239,193.47 712.772,195.911 C711.099,199.054 707.905,200.956 704.256,200.956 M692,2.413 C687.615,2.413 684.047,5.981 684.047,10.368 L684.047,170.091 C684.047,181.163 690.191,191.761 700.076,197.755 C701.361,198.436 702.822,198.813 704.256,198.813 C707.099,198.813 709.589,197.333 710.909,194.856 C712.097,192.872 712.429,190.686 711.864,188.647 C711.313,186.653 709.954,184.993 708.044,183.974 C702.885,180.882 699.953,175.831 699.953,170.091 L699.953,10.368 C699.953,5.835 696.533,2.413 692,2.413" id="Fill-10" sketch:type="MSShapeGroup"></path>
            <path d="M740.433,160.769 L740.433,100.606 C740.433,78.948 757.88,61.503 779.538,61.503 C801.197,61.503 818.641,78.948 818.641,100.606 L818.641,130.688 C818.641,135.802 814.729,139.712 809.615,139.712 L758.483,139.712 L758.483,160.769 C758.483,169.19 763.294,177.011 771.415,180.321 C779.538,183.63 788.264,181.823 794.275,175.808 C796.08,174.005 798.184,173.101 800.59,173.101 C803.301,173.101 805.408,174.005 807.209,175.808 C809.014,177.314 809.916,179.417 809.916,182.126 C809.916,184.532 809.014,186.638 807.209,188.442 C796.08,199.571 779.237,202.882 764.499,196.864 C749.761,190.849 740.433,176.71 740.433,160.769 M758.483,100.606 L758.483,121.665 L800.59,121.665 L800.59,100.606 C800.59,88.874 791.266,79.552 779.538,79.552 C767.808,79.552 758.483,88.874 758.483,100.606" id="Fill-11" sketch:type="MSShapeGroup"></path>
            <path d="M779.563,200.899 C774.245,200.899 769.04,199.876 764.091,197.856 C749.065,191.724 739.36,177.165 739.36,160.769 L739.36,100.606 C739.36,78.454 757.384,60.435 779.538,60.435 C801.69,60.435 819.713,78.454 819.713,100.606 L819.713,130.688 C819.713,136.351 815.277,140.784 809.615,140.784 L759.554,140.784 L759.554,160.769 C759.554,169.007 764.368,176.292 771.821,179.329 C779.368,182.401 787.848,180.718 793.52,175.052 C795.523,173.046 797.902,172.028 800.59,172.028 C803.525,172.028 805.936,173.017 807.969,175.052 C809.951,176.696 810.988,179.099 810.988,182.126 C810.988,184.815 809.971,187.196 807.969,189.2 C800.424,196.745 790.334,200.899 779.563,200.899 L779.563,200.899 Z M779.538,62.577 C758.565,62.577 741.505,79.636 741.505,100.606 L741.505,160.769 C741.505,176.292 750.688,190.069 764.901,195.872 C769.595,197.788 774.521,198.757 779.563,198.757 C789.764,198.757 799.312,194.825 806.453,187.685 C808.062,186.075 808.846,184.257 808.846,182.126 C808.846,179.731 808.088,177.935 806.523,176.63 C804.818,174.935 802.957,174.171 800.59,174.171 C798.465,174.171 796.646,174.954 795.035,176.565 C790.863,180.735 785.391,183.028 779.616,183.028 C776.702,183.028 773.806,182.452 771.011,181.313 C762.749,177.948 757.411,169.884 757.411,160.769 L757.411,138.642 L809.615,138.642 C814.152,138.642 817.568,135.222 817.568,130.688 L817.568,100.606 C817.568,79.636 800.506,62.577 779.538,62.577 L779.538,62.577 Z M801.662,122.737 L757.411,122.737 L757.411,100.606 C757.411,88.2 767.13,78.479 779.538,78.479 C791.945,78.479 801.662,88.2 801.662,100.606 L801.662,122.737 L801.662,122.737 Z M759.554,120.593 L799.52,120.593 L799.52,100.606 C799.52,89.401 790.742,80.622 779.538,80.622 C768.331,80.622 759.554,89.401 759.554,100.606 L759.554,120.593 L759.554,120.593 Z" id="Fill-12" sketch:type="MSShapeGroup"></path>
            <path d="M900.463,161.368 C900.158,155.352 897.453,150.542 892.342,146.933 L864.367,127.079 C855.041,120.761 849.928,110.835 849.023,100.007 C848.121,88.876 852.635,78.351 860.756,71.13 C868.881,63.608 879.705,60.3 890.537,61.806 C901.363,63.907 910.686,69.927 916.404,79.552 C918.811,84.063 917.607,89.479 913.098,91.884 C908.582,94.29 903.172,93.089 900.766,88.577 C898.055,83.763 893.541,80.755 887.826,79.853 C882.113,78.948 877,80.454 872.789,84.36 C868.576,88.274 866.773,93.089 867.074,98.802 C867.375,104.52 870.08,109.03 874.891,112.339 L902.869,131.892 C912.193,138.813 917.607,148.436 918.51,160.165 C919.412,171.899 914.896,182.427 906.48,189.946 C898.055,198.067 886.928,201.075 875.797,199.571 C864.066,197.468 854.74,191.149 849.023,181.226 C846.617,176.71 847.822,171.296 852.334,168.89 C856.846,166.483 862.26,167.688 864.668,172.198 C867.975,177.311 872.486,180.618 878.502,181.524 C884.221,182.427 889.633,180.921 894.443,176.71 C898.959,172.497 901.064,167.386 900.463,161.368" id="Fill-13" sketch:type="MSShapeGroup"></path>
            <path d="M881.287,201.017 C879.43,201.017 877.531,200.89 875.652,200.634 C863.461,198.446 853.949,191.921 848.094,181.757 C845.291,176.499 846.902,170.571 851.83,167.942 C853.475,167.069 855.285,166.602 857.068,166.602 C860.717,166.602 863.912,168.507 865.613,171.694 C868.883,176.741 873.164,179.638 878.662,180.466 C884.234,181.347 889.295,179.796 893.742,175.905 C898.041,171.89 899.951,167.028 899.396,161.476 C899.105,155.7 896.596,151.247 891.725,147.804 L863.746,127.954 C854.551,121.726 848.938,111.825 847.957,100.097 C847.041,88.817 851.447,77.97 860.045,70.327 C868.254,62.728 879.539,59.194 890.686,60.743 C902.223,62.983 911.662,69.468 917.326,79.005 C918.658,81.501 919.027,84.243 918.381,86.772 C917.719,89.39 916.02,91.54 913.6,92.829 C911.955,93.706 910.143,94.169 908.363,94.169 C904.709,94.169 901.52,92.269 899.816,89.081 C897.299,84.601 893.088,81.769 887.658,80.911 C882.246,80.054 877.455,81.493 873.518,85.147 C869.613,88.776 867.854,93.226 868.145,98.747 C868.42,104.015 870.896,108.29 875.502,111.458 L903.482,131.015 C913.105,138.155 918.666,148.202 919.578,160.085 C920.488,171.915 916.088,182.804 907.191,190.749 C900.234,197.458 891.266,201.017 881.287,201.017 M857.068,168.747 C855.637,168.747 854.172,169.124 852.836,169.835 C848.988,171.888 847.756,176.565 849.969,180.718 C855.48,190.288 864.48,196.454 875.984,198.519 C877.723,198.751 879.521,198.874 881.287,198.874 C890.697,198.874 899.154,195.52 905.734,189.175 C914.15,181.657 918.297,171.392 917.441,160.249 C916.563,148.843 911.445,139.591 902.23,132.751 L874.281,113.218 C869.104,109.661 866.314,104.827 866.006,98.862 C865.684,92.751 867.719,87.61 872.061,83.579 C876.486,79.464 881.916,77.829 887.998,78.794 C894.094,79.757 898.832,82.958 901.697,88.054 C903.031,90.548 905.516,92.026 908.363,92.026 C909.795,92.026 911.256,91.649 912.592,90.936 C914.473,89.936 915.789,88.269 916.309,86.243 C916.816,84.235 916.516,82.038 915.459,80.056 C910.137,71.095 901.205,64.972 890.334,62.858 C888.742,62.638 887.07,62.522 885.42,62.522 C876.529,62.522 868.027,65.856 861.484,71.917 C853.379,79.12 849.234,89.321 850.092,99.921 C851.018,110.989 856.303,120.319 864.967,126.192 L892.961,146.056 C898.33,149.851 901.217,154.983 901.531,161.313 C902.156,167.517 900.018,172.979 895.178,177.493 C891.109,181.054 886.564,182.847 881.648,182.847 L881.646,182.847 C880.562,182.847 879.445,182.759 878.334,182.583 C872.287,181.675 867.383,178.374 863.768,172.78 C862.381,170.189 859.957,168.747 857.068,168.747" id="Fill-14" sketch:type="MSShapeGroup"></path>
            <path d="M238.832,91.991 C238.832,112.274 222.389,128.716 202.102,128.716 L37.193,128.716 C16.91,128.716 0.465,112.274 0.465,91.991 C0.465,71.706 16.91,55.265 37.193,55.265 L202.102,55.265 C222.389,55.265 238.832,71.706 238.832,91.991" id="Fill-15" sketch:type="MSShapeGroup"></path>
            <path d="M238.832,181.163 C238.832,201.446 222.389,217.888 202.102,217.888 L37.193,217.888 C16.91,217.888 0.465,201.446 0.465,181.163 C0.465,160.88 16.91,144.436 37.193,144.436 L202.102,144.436 C222.389,144.436 238.832,160.88 238.832,181.163" id="Fill-16" sketch:type="MSShapeGroup"></path>
        </g>
    </g>
</svg>