<?xml version="1.0" encoding="UTF-8" standalone="no"?>
<svg width="574px" height="243px" viewBox="0 0 574 243" version="1.1" xmlns="http://www.w3.org/2000/svg" xmlns:xlink="http://www.w3.org/1999/xlink" xmlns:sketch="http://www.bohemiancoding.com/sketch/ns">
    <!-- Generator: Sketch 3.0.4 (8054) - http://www.bohemiancoding.com/sketch -->
    <title>Imported Layers</title>
    <desc>Created with Sketch.</desc>
    <defs></defs>
    <g id="Page-1" stroke="none" stroke-width="1" fill="none" fill-rule="evenodd" sketch:type="MSPage">
        <g id="Imported-Layers" sketch:type="MSLayerGroup" transform="translate(0.000000, 1.000000)">
            <path d="M432.884,138.856 C420.331,138.856 411.025,133.336 411.025,133.336 C411.025,133.336 391.495,102.191 388.44,92.69 C385.386,83.19 388.101,82.854 388.44,72.677 C388.779,62.5 394.547,52.32 404.048,42.483 C413.549,32.647 433.223,26.54 437.293,23.485 C441.363,20.43 464.095,22.806 477.993,23.485 C491.892,24.164 531.943,35.019 537.032,37.056 C537.19,37.12 537.368,37.248 537.536,37.346 C536.634,35.49 535.662,33.631 534.585,31.763 C534.585,31.763 522.06,-12.858 437.517,3.581 C352.972,20.021 346.709,67.772 367.846,102.999 C388.981,138.226 458.566,162.628 488.641,150.622 C494.695,148.204 501.475,144.173 508.184,138.856 L432.884,138.856" id="Fill-1" fill="#CDCCC7" sketch:type="MSShapeGroup"></path>
            <path d="M0.246,150.622 L0.246,95.056 L32.688,95.056 L32.688,97.433 L2.887,97.433 L2.887,120.52 L29.219,120.52 L29.219,122.896 L2.887,122.896 L2.887,150.622 L0.246,150.622" id="Fill-2" fill="#FFFFFF" sketch:type="MSShapeGroup"></path>
            <path d="M67.469,110.523 L67.469,150.622 L65.055,150.622 L65.055,144.36 C63.822,146.75 62.057,148.572 59.755,149.83 C57.454,151.087 54.719,151.716 51.551,151.716 C46.923,151.716 43.471,150.527 41.195,148.151 C38.919,145.774 37.781,142.172 37.781,137.344 L37.781,110.523 L40.195,110.523 L40.195,136.552 C40.195,141.104 41.082,144.392 42.855,146.416 C44.628,148.44 47.501,149.453 51.475,149.453 C53.738,149.453 55.73,149.119 57.454,148.453 C59.176,147.787 60.629,146.787 61.811,145.454 C62.992,144.121 63.829,142.568 64.319,140.795 C64.811,139.023 65.055,136.174 65.055,132.251 L65.055,110.523 L67.469,110.523" id="Fill-3" fill="#FFFFFF" sketch:type="MSShapeGroup"></path>
            <path d="M78.183,150.622 L78.183,110.523 L80.672,110.523 L80.672,117.086 C81.904,114.672 83.678,112.836 85.991,111.578 C88.305,110.321 91.033,109.692 94.178,109.692 C98.805,109.692 102.256,110.875 104.532,113.238 C106.809,115.602 107.946,119.199 107.946,124.027 L107.946,150.622 L105.457,150.622 L105.457,124.819 C105.457,120.242 104.576,116.948 102.816,114.936 C101.055,112.924 98.201,111.918 94.253,111.918 C91.989,111.918 89.996,112.252 88.273,112.918 C86.551,113.584 85.099,114.584 83.916,115.917 C82.734,117.25 81.898,118.803 81.408,120.576 C80.918,122.349 80.672,125.209 80.672,129.158 L80.672,150.622 L78.183,150.622" id="Fill-4" fill="#FFFFFF" sketch:type="MSShapeGroup"></path>
            <path d="M151.894,95.169 L151.894,150.622 L149.518,150.622 L149.518,141.72 C148.234,144.989 146.305,147.473 143.726,149.17 C141.148,150.867 138.023,151.716 134.353,151.716 C128.869,151.716 124.551,149.843 121.395,146.096 C118.238,142.349 116.66,137.218 116.66,130.704 C116.66,124.191 118.244,119.061 121.414,115.313 C124.582,111.566 128.895,109.692 134.353,109.692 C137.974,109.692 141.111,110.535 143.764,112.22 C146.418,113.905 148.334,116.281 149.518,119.35 L149.518,95.169 L151.894,95.169 L151.894,95.169 Z M149.518,130.704 C149.518,124.845 148.159,120.236 145.443,116.879 C142.727,113.522 139.03,111.843 134.353,111.843 C129.675,111.843 125.971,113.522 123.242,116.879 C120.514,120.236 119.15,124.845 119.15,130.704 C119.15,136.539 120.514,141.135 123.242,144.492 C125.971,147.85 129.675,149.528 134.353,149.528 C139.03,149.528 142.727,147.85 145.443,144.492 C148.159,141.135 149.518,136.539 149.518,130.704 L149.518,130.704 Z" id="Fill-5" fill="#FFFFFF" sketch:type="MSShapeGroup"></path>
            <path d="M195.464,150.849 C195.188,150.873 194.81,150.917 194.332,150.981 C193.853,151.043 193.502,151.075 193.275,151.075 C191.439,151.075 190.107,150.509 189.277,149.377 C188.447,148.245 188.032,146.398 188.032,143.832 C186.423,146.321 184.228,148.245 181.449,149.604 C178.67,150.962 175.482,151.641 171.887,151.641 C168.315,151.641 165.43,150.604 163.229,148.528 C161.029,146.454 159.929,143.731 159.929,140.361 C159.929,136.815 161.136,134.112 163.551,132.251 C165.965,130.391 170.088,129.045 175.924,128.215 C176.954,128.064 178.35,127.889 180.11,127.687 C185.392,127.083 188.032,125.713 188.032,123.574 L188.032,120.18 C188.032,117.463 187.102,115.383 185.24,113.937 C183.379,112.49 180.701,111.768 177.206,111.768 C173.207,111.768 170.057,112.635 167.756,114.37 C165.455,116.106 164.203,118.558 164.003,121.727 L161.701,121.727 C161.852,117.979 163.292,115.024 166.021,112.861 C168.75,110.699 172.402,109.617 176.979,109.617 C179.771,109.617 182.166,110.008 184.166,110.787 C186.165,111.566 187.693,112.711 188.749,114.219 C189.353,115.1 189.787,116.1 190.051,117.219 C190.314,118.338 190.447,120.104 190.447,122.519 L190.447,142.059 C190.447,144.901 190.697,146.769 191.201,147.661 C191.704,148.554 192.635,149 193.992,149 C194.244,149 194.658,148.962 195.238,148.887 C195.338,148.862 195.413,148.849 195.464,148.849 L195.464,150.849 L195.464,150.849 Z M188.032,127.687 C187.403,128.541 184.586,129.258 179.582,129.836 C178.777,129.938 178.148,130.013 177.696,130.063 C171.987,130.792 168.021,131.905 165.795,133.401 C163.568,134.898 162.456,137.079 162.456,139.946 C162.456,142.914 163.336,145.203 165.097,146.813 C166.857,148.422 169.359,149.227 172.603,149.227 C174.766,149.227 176.848,148.881 178.847,148.189 C180.846,147.497 182.575,146.535 184.033,145.303 C185.518,143.996 186.555,142.53 187.146,140.908 C187.736,139.286 188.032,136.854 188.032,133.609 L188.032,127.687 L188.032,127.687 Z" id="Fill-6" fill="#FFFFFF" sketch:type="MSShapeGroup"></path>
            <path d="M233.074,137.721 C232.596,142.022 230.943,145.43 228.113,147.943 C225.284,150.459 221.656,151.716 217.23,151.716 C211.924,151.716 207.699,149.824 204.555,146.039 C201.411,142.254 199.84,137.143 199.84,130.704 C199.84,124.191 201.411,119.061 204.555,115.313 C207.699,111.566 211.999,109.692 217.457,109.692 C221.682,109.692 225.139,110.799 227.83,113.012 C230.521,115.226 232.143,118.307 232.697,122.254 L230.207,122.254 C229.653,119.061 228.232,116.527 225.944,114.652 C223.656,112.779 220.826,111.843 217.457,111.843 C212.779,111.843 209.088,113.522 206.385,116.879 C203.682,120.236 202.33,124.845 202.33,130.704 C202.33,136.539 203.682,141.135 206.385,144.492 C209.088,147.85 212.779,149.528 217.457,149.528 C220.977,149.528 223.957,148.447 226.396,146.284 C228.836,144.121 230.283,141.267 230.735,137.721 L233.074,137.721" id="Fill-7" fill="#FFFFFF" sketch:type="MSShapeGroup"></path>
            <path d="M242.09,95.169 L244.504,95.169 L244.504,101.657 L242.09,101.657 L242.09,95.169 Z M242.09,110.523 L244.504,110.523 L244.504,150.623 L242.09,150.623 L242.09,110.523 Z" id="Fill-8" fill="#FFFFFF" sketch:type="MSShapeGroup"></path>
            <path d="M253.444,130.704 C253.444,124.191 255.016,119.061 258.16,115.313 C261.303,111.566 265.603,109.692 271.061,109.692 C276.518,109.692 280.832,111.566 284,115.313 C287.169,119.061 288.753,124.191 288.753,130.704 C288.753,137.192 287.169,142.317 284,146.076 C280.832,149.836 276.518,151.716 271.061,151.716 C265.603,151.716 261.303,149.843 258.16,146.096 C255.016,142.349 253.444,137.218 253.444,130.704 L253.444,130.704 Z M255.934,130.704 C255.934,136.539 257.285,141.135 259.989,144.492 C262.692,147.85 266.383,149.528 271.061,149.528 C275.738,149.528 279.448,147.85 282.189,144.492 C284.93,141.135 286.302,136.539 286.302,130.704 C286.302,124.845 284.93,120.236 282.189,116.879 C279.448,113.522 275.738,111.843 271.061,111.843 C266.383,111.843 262.692,113.522 259.989,116.879 C257.285,120.236 255.934,124.845 255.934,130.704 L255.934,130.704 Z M266.799,105.506 L274.683,93.132 L278.795,93.132 L269.213,105.506 L266.799,105.506 L266.799,105.506 Z" id="Fill-9" fill="#FFFFFF" sketch:type="MSShapeGroup"></path>
            <path d="M297.468,150.622 L297.468,110.523 L299.957,110.523 L299.957,117.086 C301.189,114.672 302.962,112.836 305.276,111.578 C307.59,110.321 310.318,109.692 313.462,109.692 C318.089,109.692 321.541,110.875 323.817,113.238 C326.093,115.602 327.23,119.199 327.23,124.027 L327.23,150.622 L324.741,150.622 L324.741,124.819 C324.741,120.242 323.86,116.948 322.101,114.936 C320.34,112.924 317.485,111.918 313.537,111.918 C311.274,111.918 309.28,112.252 307.559,112.918 C305.836,113.584 304.383,114.584 303.201,115.917 C302.019,117.25 301.184,118.803 300.692,120.576 C300.202,122.349 299.957,125.209 299.957,129.158 L299.957,150.622 L297.468,150.622" id="Fill-10" fill="#FFFFFF" sketch:type="MSShapeGroup"></path>
            <path d="M1.988,239.468 L1.988,168.628 L7.105,168.628 L32.045,235.332 L56.936,168.628 L61.959,168.628 L61.959,239.468 L58.593,239.468 L58.593,172.813 L33.465,239.468 L30.389,239.468 L5.355,172.813 L5.355,239.468 L1.988,239.468" id="Fill-11" fill="#FFFFFF" sketch:type="MSShapeGroup"></path>
            <path d="M77.637,168.628 L81.004,168.628 L81.004,213.161 C81.004,221.306 82.885,227.493 86.647,231.725 C90.41,235.957 95.91,238.073 103.15,238.073 C110.324,238.073 115.809,235.941 119.603,231.677 C123.398,227.413 125.297,221.241 125.297,213.161 L125.297,168.628 L128.662,168.628 L128.662,214.748 C128.662,222.956 126.394,229.393 121.857,234.058 C117.32,238.723 111.076,241.055 103.126,241.055 C95.078,241.055 88.818,238.746 84.346,234.13 C79.873,229.513 77.637,223.053 77.637,214.748 L77.637,168.628" id="Fill-12" fill="#FFFFFF" sketch:type="MSShapeGroup"></path>
            <path d="M144.293,239.468 L144.293,168.628 L147.659,168.628 L147.659,236.438 L185.171,236.438 L185.171,239.468 L144.293,239.468" id="Fill-13" fill="#FFFFFF" sketch:type="MSShapeGroup"></path>
            <path d="M201.858,239.468 L201.858,171.658 L179.784,171.658 L179.784,168.628 L227.299,168.628 L227.299,171.658 L205.225,171.658 L205.225,239.468 L201.858,239.468" id="Fill-14" fill="#FFFFFF" sketch:type="MSShapeGroup"></path>
            <path d="M236.869,168.628 L240.236,168.628 L240.236,239.468 L236.869,239.468 L236.869,168.628 Z" id="Fill-15" fill="#FFFFFF" sketch:type="MSShapeGroup"></path>
            <path d="M272.361,239.468 L272.361,171.658 L250.287,171.658 L250.287,168.628 L297.802,168.628 L297.802,171.658 L275.728,171.658 L275.728,239.468 L272.361,239.468" id="Fill-16" fill="#FFFFFF" sketch:type="MSShapeGroup"></path>
            <path d="M306.41,168.628 L309.776,168.628 L309.776,213.161 C309.776,221.306 311.657,227.493 315.421,231.725 C319.183,235.957 324.684,238.073 331.923,238.073 C339.098,238.073 344.582,235.941 348.377,231.677 C352.172,227.413 354.069,221.241 354.069,213.161 L354.069,168.628 L357.435,168.628 L357.435,214.748 C357.435,222.956 355.167,229.393 350.631,234.058 C346.094,238.723 339.85,241.055 331.898,241.055 C323.851,241.055 317.592,238.746 313.119,234.13 C308.646,229.513 306.41,223.053 306.41,214.748 L306.41,168.628" id="Fill-17" fill="#FFFFFF" sketch:type="MSShapeGroup"></path>
            <path d="M372.97,239.468 L372.97,168.628 L389.226,168.628 C395.188,168.628 399.861,168.901 403.244,169.446 C406.626,169.991 409.536,170.873 411.973,172.091 C417.102,174.624 420.997,178.607 423.659,184.042 C426.319,189.477 427.65,196.169 427.65,204.12 C427.65,212.104 426.312,218.82 423.635,224.271 C420.958,229.722 417.07,233.633 411.973,236.005 C409.439,237.224 406.401,238.106 402.859,238.65 C399.316,239.195 394.771,239.468 389.226,239.468 L372.97,239.468 L372.97,239.468 Z M376.337,236.438 L389.994,236.438 C395.316,236.438 399.564,236.157 402.739,235.597 C405.913,235.036 408.702,234.132 411.107,232.882 C415.339,230.64 418.577,227.051 420.821,222.117 C423.065,217.184 424.188,211.16 424.188,204.048 C424.188,198.058 423.402,192.867 421.831,188.479 C420.26,184.089 417.92,180.517 414.81,177.762 C412.341,175.551 409.311,173.981 405.721,173.052 C402.13,172.123 396.888,171.658 389.994,171.658 L376.337,171.658 L376.337,236.438 L376.337,236.438 Z" id="Fill-18" fill="#FFFFFF" sketch:type="MSShapeGroup"></path>
            <path d="M440.827,239.468 L440.827,168.628 L484.108,168.628 L484.108,171.658 L444.194,171.658 L444.194,201.091 L480.643,201.091 L480.643,204.12 L444.194,204.12 L444.194,236.438 L485.072,236.438 L485.072,239.468 L440.827,239.468" id="Fill-19" fill="#FFFFFF" sketch:type="MSShapeGroup"></path>
            <path d="M493.008,217.874 L496.277,217.874 C496.662,224.095 498.738,229.016 502.506,232.639 C506.272,236.262 511.187,238.073 517.246,238.073 C523.177,238.073 528.01,236.534 531.745,233.456 C535.48,230.378 537.349,226.403 537.349,221.529 C537.349,217.138 536.122,213.763 533.669,211.406 C531.217,209.05 525.518,206.621 516.572,204.12 L515.226,203.735 C507.178,201.491 502.032,199.344 499.788,197.291 C498.153,195.816 496.91,194.086 496.062,192.098 C495.212,190.109 494.787,187.945 494.787,185.605 C494.787,180.026 496.718,175.546 500.582,172.163 C504.445,168.781 509.6,167.09 516.044,167.09 C522.744,167.09 528.139,168.957 532.227,172.692 C536.314,176.428 538.47,181.485 538.694,187.865 L535.568,187.817 C535.473,182.399 533.629,178.047 530.038,174.76 C526.447,171.474 521.719,169.831 515.852,169.831 C510.336,169.831 505.976,171.249 502.771,174.087 C499.563,176.924 497.961,180.764 497.961,185.605 C497.961,187.433 498.321,189.148 499.043,190.751 C499.765,192.355 500.847,193.813 502.289,195.127 C504.244,196.987 508.909,198.91 516.284,200.898 C516.893,201.059 517.342,201.171 517.631,201.234 C526.992,203.768 533.172,206.413 536.17,209.17 C539.167,211.928 540.667,215.759 540.667,220.664 C540.667,226.819 538.534,231.757 534.271,235.477 C530.006,239.195 524.299,241.055 517.149,241.055 C510.192,241.055 504.565,239.003 500.269,234.899 C495.973,230.796 493.553,225.12 493.008,217.874" id="Fill-20" fill="#FFFFFF" sketch:type="MSShapeGroup"></path>
            <path d="M465.908,138.856 L490.078,138.856 C487.81,130.293 483.825,114.341 480.125,107.695 C476.192,100.645 470.266,127.313 465.908,138.856" id="Fill-21" fill="#FFFFFF" sketch:type="MSShapeGroup"></path>
            <path d="M503.496,96.299 C499.836,92.504 493.025,77.545 490.182,80.389 C487.338,83.232 489.148,91.251 489.922,97.198 C490.625,102.605 493.677,128.046 494.616,138.856 L501.713,138.856 C503.618,128.621 507.138,102.708 507.856,97.198 C508.63,91.251 509.798,83.254 506.954,80.413 C505.954,79.413 503.343,79.814 499.267,78.64 C500.988,81.921 502.478,85.159 503.698,87.814 C506.991,94.99 507.392,100.342 503.496,96.299" id="Fill-22" fill="#FFFFFF" sketch:type="MSShapeGroup"></path>
            <path d="M436.085,107.695 C432.327,100.953 426.746,125.04 422.453,137.259 C426.773,138.266 431.254,138.856 435.883,138.856 L446.042,138.856 C443.772,130.293 439.788,114.341 436.085,107.695" id="Fill-23" fill="#FFFFFF" sketch:type="MSShapeGroup"></path>
            <path d="M513.74,19.943 L435.883,19.943 C403.048,19.943 376.426,46.565 376.426,79.401 C376.426,87.373 378.022,94.963 380.866,101.91 L344.862,143.892 L395.214,122.689 C401.518,128.615 409.124,133.149 417.536,135.896 C417.671,134.336 417.82,132.7 417.955,131.073 C418.731,121.762 419.765,87.11 418.988,83.232 C418.215,79.353 414.23,83.52 410.313,85.303 C406.402,87.086 399.078,90.217 396.751,89.7 C394.425,89.18 409.423,80.646 413.301,72.631 C417.181,64.616 424.162,62.867 424.162,62.867 C424.162,62.867 424.565,62.886 425.232,62.916 C423.413,61.066 422.285,58.54 422.285,55.739 C422.285,50.061 426.89,45.453 432.571,45.453 C438.253,45.453 442.858,50.061 442.858,55.739 C442.858,58.901 441.418,61.714 439.171,63.595 C439.183,63.598 439.194,63.598 439.194,63.598 C444.415,63.876 445.108,66.164 448.473,67.717 C450.546,68.677 453.225,69.616 457.328,70.151 C451.625,57.546 444.283,40.401 448.552,38.933 C450.809,38.156 455.888,53.055 461.279,60.143 C465.116,65.194 468.202,62.867 468.202,62.867 C468.202,62.867 468.502,62.818 469.003,62.739 C466.018,60.94 464.007,57.69 464.007,53.953 C464.007,48.272 468.614,43.667 474.296,43.667 C479.978,43.667 484.583,48.272 484.583,53.953 C484.583,57.057 483.191,59.81 481.021,61.693 C481.537,61.702 482.039,61.721 482.504,61.76 C487.335,62.164 491.573,66.372 495.13,71.625 C501.826,73.093 503.325,72.937 506.297,71.148 C509.373,69.289 510.957,65.008 516.171,64.73 L516.211,64.73 C513.04,62.978 510.881,59.62 510.881,55.739 C510.881,50.061 515.489,45.453 521.164,45.453 C526.849,45.453 531.454,50.061 531.454,55.739 C531.454,60.118 528.699,63.815 524.847,65.301 C526.243,65.522 527.155,65.717 527.155,65.717 C527.155,65.717 530.861,66.705 537.5,62.867 C545.212,58.409 551.159,47.621 554.333,50.477 C555.881,51.865 550.48,57.241 547.691,60.513 C544.142,64.684 535.225,75.111 533.354,82.486 C531.671,89.104 535.032,119.034 537.025,134.116 C558.287,125.053 573.194,103.971 573.194,79.401 C573.194,46.565 546.575,19.943 513.74,19.943" id="Fill-24" fill="#FFFFFF" sketch:type="MSShapeGroup"></path>
            <path d="M460.221,76.502 C454.628,77.331 448.087,78.444 446.143,80.389 C443.299,83.232 445.108,91.251 445.886,97.198 C446.589,102.605 449.641,128.046 450.576,138.856 L461.343,138.856 C461.502,136.511 461.769,133.776 461.994,131.073 C462.771,121.762 463.802,87.11 463.028,83.232 C462.86,82.383 461.762,79.897 460.221,76.502" id="Fill-25" fill="#FFFFFF" sketch:type="MSShapeGroup"></path>
            <path d="M517.651,107.695 C513.954,114.331 510.153,130.315 507.792,138.856 L513.74,138.856 C519.442,138.856 524.94,138.005 530.164,136.504 C527.265,123.887 521.385,101.002 517.651,107.695" id="Fill-26" fill="#FFFFFF" sketch:type="MSShapeGroup"></path>
        </g>
    </g>
</svg>