<?xml version="1.0" encoding="utf-8"?>
<!-- Generator: Adobe Illustrator 15.0.0, SVG Export Plug-In . SVG Version: 6.00 Build 0)  -->
<!DOCTYPE svg PUBLIC "-//W3C//DTD SVG 1.1//EN" "http://www.w3.org/Graphics/SVG/1.1/DTD/svg11.dtd">
<svg version="1.1" id="Capa_1" xmlns="http://www.w3.org/2000/svg" xmlns:xlink="http://www.w3.org/1999/xlink" x="0px" y="0px"
	 width="87.695px" height="98.547px" viewBox="0 0 87.695 98.547" enable-background="new 0 0 87.695 98.547" xml:space="preserve">
<path fill="none" d="M66.001,27.407c-0.072,0.194-1.545,4.82,0.152,7.877c1.646,2.96,5.464,6.645,7.698,7.426
	c1.108,0.384,3.372,0.841,6.115,0.841c2.158,0,4.21-0.287,5.929-0.836l0.074-0.029c0.094-0.042,0.702-0.32,1.726-0.869v-4.214
	c-1.354,0.731-2.474,1.17-3.214,1.17l-0.237-0.005l-0.163,0.089c-0.014,0.005-1.213,0.609-3.679,0.609
	c-1.489,0-3.136-0.215-4.884-0.643c-0.844-0.557-7.259-5.035-4.805-10.471c1.08-0.813,7.981-6.064,16.981-14.442V6.822
	L66.054,27.234L66.001,27.407z"/>
<path fill="none" d="M12.357,78.336c2.275,0,4.117-1.845,4.117-4.117c0-2.277-1.842-4.117-4.117-4.117
	c-2.276-0.004-4.118,1.84-4.118,4.117C8.239,76.492,10.081,78.336,12.357,78.336z"/>
<path fill="#3DB191" d="M0,83.044h25.889V2.19H0V83.044z M12.357,70.102c2.275,0,4.117,1.84,4.117,4.117
	c0,2.272-1.842,4.117-4.117,4.117s-4.118-1.844-4.118-4.117C8.239,71.941,10.08,70.098,12.357,70.102z"/>
<path fill="#3DB191" d="M54.069,47.601L53.962,47.5c-1.231-1.207-2.868-1.874-4.61-1.874c-1.797,0-3.471,0.702-4.718,1.979
	L33.729,58.671c-2.539,2.603-2.496,6.786,0.109,9.328l0.104,0.101c1.235,1.211,2.87,1.875,4.616,1.875
	c1.797,0,3.475-0.701,4.719-1.979l10.9-11.066C56.717,54.336,56.674,50.146,54.069,47.601z"/>
<path fill="#3DB191" d="M67.466,57.475l-0.107-0.103c-1.233-1.208-2.87-1.873-4.61-1.873c-1.797,0-3.473,0.701-4.725,1.976
	l-10.895,11.07c-2.542,2.598-2.495,6.785,0.107,9.328l0.105,0.1c1.235,1.207,2.87,1.872,4.612,1.872
	c1.797,0,3.471-0.696,4.719-1.972l10.901-11.072C70.118,64.203,70.066,60.018,67.466,57.475z"/>
<path fill="#3DB191" d="M81.725,66.171l-0.105-0.104c-1.235-1.207-2.87-1.873-4.614-1.873c-1.797,0-3.471,0.701-4.716,1.979
	l-10.903,11.07c-2.542,2.598-2.491,6.789,0.111,9.325l0.104,0.104c1.231,1.209,2.868,1.872,4.611,1.872
	c1.797,0,3.471-0.7,4.721-1.979l10.899-11.065C84.375,72.898,84.325,68.711,81.725,66.171z"/>
<path fill="#3DB191" d="M85.681,75.655L74.778,86.725c-2.54,2.599-2.489,6.779,0.109,9.327l0.109,0.101
	c1.229,1.205,2.87,1.875,4.606,1.875c1.799,0,3.477-0.703,4.723-1.979l3.37-3.422V74.255C86.951,74.587,86.268,75.055,85.681,75.655
	z"/>
<path fill="#3DB191" d="M75.519,38.823c1.748,0.428,3.395,0.643,4.884,0.643c2.466,0,3.665-0.604,3.679-0.609l0.163-0.089
	l0.237,0.005c0.74,0,1.86-0.438,3.214-1.17V13.91c-9,8.378-15.901,13.629-16.981,14.442C68.26,33.788,74.675,38.266,75.519,38.823z"
	/>
<path fill="#3DB191" d="M85.97,42.686l-0.074,0.029c-1.719,0.549-3.771,0.836-5.929,0.836c-2.743,0-5.007-0.457-6.115-0.841
	c-2.234-0.781-6.053-4.466-7.698-7.426c-1.697-3.057-0.225-7.683-0.152-7.877l0.053-0.173L87.696,6.822V1.764
	C86.695,1.595,85.536,1.51,84.22,1.51c-9.681,0-24.333,4.682-25.152,4.947C57.962,6.947,29.11,8.448,29.11,8.448v42.391
	c1.725,1.709,3.065,3.185,3.757,3.959l12.715-12.42l0.204-0.046c1.081-0.225,2.118-0.343,3.1-0.343
	c7.815,0,10.008,7.219,10.502,9.511c0.642-0.063,1.268-0.098,1.867-0.098c9.252,0,11.177,7.412,11.564,9.938
	c1.291-0.261,2.516-0.392,3.656-0.392c8.482,0,10.436,7.126,10.854,9.518c0.126-0.019,0.243-0.023,0.367-0.04v-28.61
	C86.672,42.366,86.064,42.645,85.97,42.686z"/>
</svg>
