<?xml version="1.0" encoding="utf-8"?>
<!-- Generator: Adobe Illustrator 15.0.0, SVG Export Plug-In . SVG Version: 6.00 Build 0)  -->
<!DOCTYPE svg PUBLIC "-//W3C//DTD SVG 1.1//EN" "http://www.w3.org/Graphics/SVG/1.1/DTD/svg11.dtd">
<svg version="1.1" id="Capa_1" xmlns="http://www.w3.org/2000/svg" xmlns:xlink="http://www.w3.org/1999/xlink" x="0px" y="0px"
	 width="87.695px" height="98.547px" viewBox="0 0 87.695 98.547" enable-background="new 0 0 87.695 98.547" xml:space="preserve">
<path fill="none" d="M75.342,70.102c-2.275,0-4.118,1.84-4.118,4.117c0,2.272,1.843,4.117,4.118,4.117
	c2.273,0,4.116-1.844,4.116-4.117C79.458,71.941,77.616,70.098,75.342,70.102z"/>
<path fill="#3DB191" d="M61.808,2.19v80.854h25.889V2.19H61.808z M75.342,78.336c-2.275,0-4.118-1.845-4.118-4.117
	c0-2.277,1.843-4.117,4.118-4.117c2.274-0.004,4.116,1.84,4.116,4.117C79.458,76.492,77.615,78.336,75.342,78.336z"/>
<path fill="#3DB191" d="M7.531,84.979c2.544-2.599,2.492-6.785-0.107-9.326l-0.109-0.107c-1.23-1.205-2.865-1.867-4.609-1.867
	c-0.952,0-1.866,0.202-2.704,0.576v18.371L7.531,84.979z"/>
<path fill="#3DB191" d="M44.64,7.129C38.208,6.5,30.254,3.761,29.92,3.644l-0.084-0.03C24.935,1.212,20.738,0,17.353,0
	c-3.396,0-4.691,1.276-4.706,1.291C8.237,6.021,3.921,10.26,0,13.909v23.694c5.584-3.017,15.205-11.09,19.185-14.628l0.357-0.32
	l0.431,0.209c16.399,8.052,37.135,32.112,38.446,33.649V4.872c-4.557,1.996-8.822,2.382-11.39,2.382
	C45.64,7.254,44.772,7.142,44.64,7.129z"/>
<path fill="#3DB191" d="M9.83,73.286c3.663,4.019,3.091,10.532,3.067,10.812l-0.028,0.252L0.284,97.137
	c1.756,0.938,3.431,1.41,4.981,1.41c6.229,0,8.94-7.668,8.972-7.749l0.196-0.573l0.595,0.109c1.039,0.184,2.029,0.277,2.948,0.277
	c8.41,0,8.842-7.943,8.855-8.278l0.039-0.878l0.852,0.216c1.691,0.44,3.271,0.662,4.696,0.662c8.766,0,9.639-8.253,9.672-8.604
	l0.071-0.771l0.763,0.146c1.297,0.24,2.516,0.362,3.609,0.362c2.933,0,5.129-0.873,6.529-2.59c2.714-3.306,1.735-8.731,1.678-9.044
	c-2.298-9.143-31.495-31.248-35.605-34.325C10.406,35.767,3.177,40.112,0,41.816v28.611C4.279,69.862,7.595,70.822,9.83,73.286z"/>
<path fill="#3DB191" d="M3.697,3.335C2.934,2.574,1.696,2.049,0,1.764v5.058L3.697,3.335z"/>
</svg>
