<?xml version="1.0" encoding="UTF-8" standalone="no"?>
<!-- Generator: Adobe Illustrator 15.0.0, SVG Export Plug-In . SVG Version: 6.00 Build 0)  -->

<svg
   xmlns:dc="http://purl.org/dc/elements/1.1/"
   xmlns:cc="http://creativecommons.org/ns#"
   xmlns:rdf="http://www.w3.org/1999/02/22-rdf-syntax-ns#"
   xmlns:svg="http://www.w3.org/2000/svg"
   xmlns="http://www.w3.org/2000/svg"
   xmlns:sodipodi="http://sodipodi.sourceforge.net/DTD/sodipodi-0.dtd"
   xmlns:inkscape="http://www.inkscape.org/namespaces/inkscape"
   version="1.1"
   id="Capa_1"
   x="0px"
   y="0px"
   width="150.91956"
   height="98.154839"
   viewBox="0 0 150.91955 98.154842"
   enable-background="new 0 0 175.393 98.547"
   xml:space="preserve"
   inkscape:version="0.48.4 r9939"
   sodipodi:docname="acuerdototal1.svg"><metadata
     id="metadata38"><rdf:RDF><cc:Work
         rdf:about=""><dc:format>image/svg+xml</dc:format><dc:type
           rdf:resource="http://purl.org/dc/dcmitype/StillImage" /><dc:title></dc:title></cc:Work></rdf:RDF></metadata><defs
     id="defs36" /><sodipodi:namedview
     pagecolor="#ffffff"
     bordercolor="#666666"
     borderopacity="1"
     objecttolerance="10"
     gridtolerance="10"
     guidetolerance="10"
     inkscape:pageopacity="0"
     inkscape:pageshadow="2"
     inkscape:window-width="1366"
     inkscape:window-height="702"
     id="namedview34"
     showgrid="false"
     inkscape:zoom="2.2064734"
     inkscape:cx="75.912988"
     inkscape:cy="34.591059"
     inkscape:window-x="0"
     inkscape:window-y="27"
     inkscape:window-maximized="1"
     inkscape:current-layer="Capa_1"
     fit-margin-top="0"
     fit-margin-left="0"
     fit-margin-right="0"
     fit-margin-bottom="0"
     inkscape:snap-object-midpoints="false"
     inkscape:snap-center="true"
     inkscape:snap-bbox="true" /><g
     id="g5"
     transform="translate(-24.473448,7.2471485)"><g
       id="g7"><path
         style="fill:#3db191"
         inkscape:connector-curvature="0"
         id="path9"
         d="m 149.504,83.044 h 25.889 V 2.19 h -25.889 v 80.854 z m 17.651,-8.825 c 0,2.273 -1.843,4.117 -4.117,4.117 -2.275,0 -4.118,-1.845 -4.118,-4.117 0,-2.277 1.843,-4.118 4.118,-4.118 2.275,-0.004 4.117,1.84 4.117,4.118 z" /></g></g><g
     id="g11"
     transform="translate(-4.8233942e-6,7.2471485)"><g
       id="g13"><path
         style="fill:#3db191"
         inkscape:connector-curvature="0"
         id="path15"
         d="M 25.889,2.19 H 0 V 83.044 H 25.889 V 2.19 z M 12.357,70.101 c 2.275,0 4.117,1.841 4.117,4.118 0,2.272 -1.842,4.117 -4.117,4.117 -2.277,0 -4.118,-1.844 -4.118,-4.117 0,-2.278 1.841,-4.122 4.118,-4.118 z" /></g></g><path
     d="m 47.482635,55.107281 -0.09042,-0.08535 c -1.040272,-1.01999 -2.423639,-1.583647 -3.895737,-1.583647 -1.518578,0 -2.933212,0.593234 -3.987005,1.672379 l -9.215405,9.35146 c -2.145613,2.199697 -2.109276,5.734593 0.09211,7.882742 l 0.08873,0.08451 c 1.043652,1.023371 2.425329,1.584492 3.900808,1.584492 1.518577,0 2.934902,-0.592389 3.98785,-1.671533 l 9.210335,-9.352306 c 2.146458,-2.191247 2.11012,-5.731213 -0.09127,-7.882742 z"
     id="path18"
     inkscape:connector-curvature="0"
     style="fill:#3db191" /><path
     d="m 58.803936,63.451427 -0.09042,-0.08704 c -1.043652,-1.020835 -2.425329,-1.582802 -3.897428,-1.582802 -1.518577,0 -2.933211,0.592389 -3.991229,1.669843 l -9.206955,9.354841 c -2.148149,2.194627 -2.108431,5.733748 0.09211,7.882742 l 0.08873,0.08366 c 1.043652,1.01999 2.425329,1.582802 3.897428,1.582802 1.518577,0 2.933211,-0.589009 3.987849,-1.666463 l 9.212025,-9.356531 c 2.148994,-2.195472 2.105051,-5.732903 -0.09211,-7.881052 z"
     id="path20"
     inkscape:connector-curvature="0"
     style="fill:#3db191" /><path
     d="m 70.85368,70.80009 -0.09042,-0.08873 c -1.043652,-1.019145 -2.425329,-1.581957 -3.899117,-1.581957 -1.518578,0 -2.933212,0.592389 -3.985315,1.671534 l -9.213715,9.35484 c -2.148148,2.195472 -2.10505,5.737129 0.0938,7.881052 l 0.08873,0.08704 c 1.040271,1.02168 2.423639,1.581956 3.896582,1.581956 1.518577,0 2.933212,-0.591543 3.98954,-1.671533 L 70.9441,78.681987 c 2.148993,-2.197163 2.10674,-5.735439 -0.09042,-7.881897 z"
     id="path22"
     inkscape:connector-curvature="0"
     style="fill:#3db191" /><path
     d="m 82.172446,78.812971 -0.09211,-0.09127 c -1.040272,-1.0183 -2.421949,-1.577731 -3.895738,-1.577731 -1.518577,0 -2.933211,0.592389 -3.987849,1.669843 l -9.213715,9.354841 c -2.146459,2.195472 -2.105051,5.729523 0.09211,7.882742 l 0.09211,0.08535 c 1.040272,1.017455 2.425329,1.583647 3.894048,1.583647 1.520267,0 2.936591,-0.594924 3.989539,-1.673224 l 9.213715,-9.35484 c 2.148994,-2.194627 2.105051,-5.732903 -0.09211,-7.879362 z"
     id="path24"
     inkscape:connector-curvature="0"
     style="fill:#3db191" /><path
     style="fill:#3db191"
     d="m 90.577512,14.87359 c -2.870677,0 -3.988169,1.081074 -4,1.09375 -12.282981,13.171987 -23.720558,21.888812 -25.03125,22.875 -2.073783,4.593759 3.349267,8.37305 4.0625,8.84375 1.477169,0.361686 2.865012,0.53125 4.125,0.53125 2.082233,0 3.114859,-0.495775 3.125,-0.5 l 0.125,-0.0625 0.1875,0 c 3.207857,0 14.758667,-9.628856 18.9375,-13.34375 l 0.3125,-0.28125 0.34375,0.1875 c 10.572798,5.190985 23.233728,18.176016 29.156248,24.65625 l 0,-38.71875 c -2.5207,0.676464 -4.76156,0.84375 -6.28125,0.84375 -1.17464,0 -1.9197,-0.08277 -2.03125,-0.09375 -5.43544,-0.531545 -12.15525,-2.838627 -12.4375,-2.9375 l -0.0625,-0.03125 c -4.141648,-2.029839 -7.670712,-3.0625 -10.531248,-3.0625 z"
     id="path28"
     inkscape:connector-curvature="0" /><path
     style="fill:#3db191"
     d="m 72.952512,16.15484 c -8.181049,0 -20.557894,3.963558 -21.25,4.1875 -0.834987,0.36993 -18.528387,1.311164 -22.6875,1.53125 l 0,38.71875 c 0.176682,0.194455 0.435629,0.451249 0.5625,0.59375 l 10.71875,-10.5 0.1875,-0.03125 c 0.913512,-0.190139 1.796839,-0.28125 2.625,-0.28125 6.604163,0 8.45754,6.094367 8.875,8.03125 0.542531,-0.05239 1.056308,-0.09375 1.5625,-0.09375 7.818517,0 9.452521,6.269932 9.78125,8.40625 1.090976,-0.220562 2.128688,-0.34375 3.09375,-0.34375 7.167819,0 8.803014,6.041111 9.15625,8.0625 3.769824,-0.568727 6.682201,0.231921 8.625,2.375 3.095463,3.394615 2.612341,8.890918 2.59375,9.125 l -0.03125,0.21875 -10.625,10.8125 c 1.48393,0.792669 2.907213,1.1875 4.21875,1.1875 5.263894,0 7.536303,-6.4628 7.5625,-6.53125 l 0.1875,-0.5 0.5,0.09375 c 0.87802,0.154646 1.692138,0.25 2.46875,0.25 7.10698,0 7.48816,-6.716904 7.5,-7 l 0.0312,-0.75 0.71875,0.1875 c 1.429848,0.372672 2.764538,0.5625 3.968748,0.5625 7.40782,0 8.15961,-6.984633 8.1875,-7.28125 l 0.0625,-0.65625 0.625,0.125 c 1.09605,0.20366 2.13801,0.3125 3.0625,0.3125 2.47773,0 4.31607,-0.736528 5.5,-2.1875 2.29181,-2.792086 1.48566,-7.39259 1.4375,-7.65625 -1.94106,-7.72556 -26.619646,-26.399743 -30.093698,-29 -9.757935,9.232306 -17.301341,12.700089 -17.625,12.84375 l -0.0625,0 c -1.452662,0.463939 -3.20845,0.71875 -5.03125,0.71875 -2.318006,0 -4.219921,-0.394246 -5.15625,-0.71875 -1.88956,-0.659993 -5.109873,-3.779865 -6.5,-6.28125 -1.435761,-2.583356 -0.184999,-6.492308 -0.125,-6.65625 l 0.03125,-0.125 21.40625,-20.21875 c -1.025061,-1.022525 -3.064219,-1.53125 -6.0625,-1.53125 z"
     id="path32"
     inkscape:connector-curvature="0" /></svg>