<?xml version="1.0" encoding="utf-8"?>
<!-- Generator: Adobe Illustrator 15.0.0, SVG Export Plug-In . SVG Version: 6.00 Build 0)  -->
<!DOCTYPE svg PUBLIC "-//W3C//DTD SVG 1.1//EN" "http://www.w3.org/Graphics/SVG/1.1/DTD/svg11.dtd">
<svg version="1.1" id="Capa_1" xmlns="http://www.w3.org/2000/svg" xmlns:xlink="http://www.w3.org/1999/xlink" x="0px" y="0px"
	 width="175.393px" height="98.547px" viewBox="0 0 175.393 98.547" enable-background="new 0 0 175.393 98.547"
	 xml:space="preserve">
<g>
	<g>
		<g>
			<path fill="#3DB191" d="M149.504,83.044h25.889V2.19h-25.889V83.044z M167.155,74.219c0,2.273-1.843,4.117-4.117,4.117
				c-2.275,0-4.118-1.845-4.118-4.117c0-2.277,1.843-4.118,4.118-4.118C165.313,70.097,167.155,71.941,167.155,74.219z"/>
		</g>
	</g>
	<g>
		<g>
			<path fill="#3DB191" d="M25.889,2.19H0v80.854h25.889V2.19z M12.357,70.101c2.275,0,4.117,1.841,4.117,4.118
				c0,2.272-1.842,4.117-4.117,4.117c-2.277,0-4.118-1.844-4.118-4.117C8.239,71.941,10.08,70.097,12.357,70.101z"/>
		</g>
	</g>
	<g id="Your_Icon_7_">
		<path fill="#3DB191" d="M54.069,47.601L53.962,47.5c-1.231-1.207-2.868-1.874-4.61-1.874c-1.797,0-3.471,0.702-4.718,1.979
			L33.729,58.671c-2.539,2.603-2.496,6.786,0.109,9.328l0.105,0.1c1.235,1.211,2.87,1.875,4.616,1.875
			c1.797,0,3.473-0.701,4.719-1.978l10.899-11.067C56.717,54.336,56.674,50.147,54.069,47.601z"/>
		<path fill="#3DB191" d="M67.466,57.475l-0.107-0.103c-1.235-1.208-2.87-1.873-4.612-1.873c-1.797,0-3.471,0.701-4.723,1.976
			l-10.895,11.07c-2.542,2.597-2.495,6.785,0.109,9.328l0.105,0.099c1.235,1.207,2.87,1.873,4.612,1.873
			c1.797,0,3.471-0.697,4.719-1.972l10.901-11.072C70.118,64.203,70.066,60.017,67.466,57.475z"/>
		<path fill="#3DB191" d="M81.725,66.171l-0.107-0.105c-1.235-1.206-2.87-1.872-4.614-1.872c-1.797,0-3.471,0.701-4.716,1.978
			l-10.903,11.07c-2.542,2.598-2.491,6.789,0.111,9.326l0.105,0.103c1.231,1.209,2.868,1.872,4.611,1.872
			c1.797,0,3.471-0.7,4.721-1.978l10.899-11.067C84.375,72.898,84.325,68.711,81.725,66.171z"/>
		<path fill="#3DB191" d="M95.119,75.653l-0.109-0.108c-1.231-1.205-2.866-1.867-4.61-1.867c-1.797,0-3.471,0.701-4.719,1.976
			l-10.903,11.07c-2.54,2.598-2.491,6.78,0.109,9.328l0.109,0.101c1.231,1.204,2.87,1.874,4.608,1.874
			c1.799,0,3.475-0.704,4.721-1.98l10.903-11.07C97.771,82.38,97.719,78.193,95.119,75.653z"/>
		<g>
			<path fill="#3DB191" d="M146.115,4.872c-4.555,1.996-8.822,2.382-11.388,2.382c-1.39,0-2.258-0.112-2.39-0.125
				c-6.432-0.629-14.387-3.368-14.721-3.485l-0.084-0.03C112.631,1.212,108.434,0,105.049,0c-3.397,0-4.692,1.276-4.706,1.291
				C85.808,16.878,72.265,27.185,70.714,28.352c-2.454,5.436,3.961,9.914,4.805,10.471c1.748,0.428,3.393,0.643,4.884,0.643
				c2.464,0,3.665-0.604,3.677-0.609l0.163-0.089l0.239,0.005c3.796,0,17.454-11.402,22.399-15.798l0.358-0.32l0.43,0.209
				c16.4,8.052,37.135,32.112,38.446,33.649V4.872z"/>
		</g>
		<g>
			<path fill="#3DB191" d="M142.438,61.832c-2.297-9.142-31.495-31.248-35.606-34.325c-11.547,10.925-20.48,15.009-20.863,15.179
				l-0.074,0.029c-1.719,0.549-3.772,0.836-5.929,0.836c-2.743,0-5.007-0.457-6.115-0.841c-2.236-0.781-6.053-4.466-7.698-7.426
				c-1.699-3.057-0.225-7.683-0.154-7.877l0.053-0.173L91.393,3.335C90.18,2.125,87.768,1.51,84.22,1.51
				c-9.681,0-24.333,4.682-25.152,4.947c-1.106,0.49-29.958,1.991-29.958,1.991v42.391c1.723,1.709,3.065,3.184,3.755,3.959
				l12.715-12.42l0.204-0.046c1.081-0.225,2.12-0.343,3.1-0.343c7.815,0,10.008,7.219,10.502,9.511
				c0.642-0.062,1.268-0.097,1.867-0.097c9.252,0,11.177,7.411,11.566,9.939c1.291-0.261,2.514-0.392,3.656-0.392
				c8.482,0,10.434,7.126,10.852,9.518c4.461-0.673,7.9,0.283,10.199,2.819c3.663,4.017,3.09,10.533,3.068,10.81l-0.029,0.253
				L87.981,97.137c1.756,0.938,3.43,1.41,4.982,1.41c6.229,0,8.941-7.668,8.972-7.749l0.196-0.573l0.595,0.109
				c1.039,0.183,2.029,0.277,2.948,0.277c8.41,0,8.842-7.943,8.856-8.278l0.039-0.878l0.851,0.216
				c1.692,0.441,3.271,0.662,4.696,0.662c8.766,0,9.639-8.253,9.672-8.604l0.072-0.773l0.762,0.146
				c1.297,0.241,2.516,0.363,3.61,0.363c2.932,0,5.129-0.873,6.53-2.59C143.474,67.571,142.495,62.144,142.438,61.832z"/>
		</g>
	</g>
</g>
</svg>
