<?xml version="1.0" encoding="UTF-8" standalone="no"?>
<svg width="141px" height="85px" viewBox="0 0 141 85" version="1.1" xmlns="http://www.w3.org/2000/svg" xmlns:xlink="http://www.w3.org/1999/xlink" xmlns:sketch="http://www.bohemiancoding.com/sketch/ns">
    <!-- Generator: Sketch 3.0.4 (8054) - http://www.bohemiancoding.com/sketch -->
    <title>acuerdoparcializq</title>
    <desc>Created with Sketch.</desc>
    <defs></defs>
    <g id="Introduction" stroke="none" stroke-width="1" fill="none" fill-rule="evenodd" sketch:type="MSPage">
        <g id="acuerdoparcializq" sketch:type="MSLayerGroup" fill="#FFA048">
            <g id="g3" sketch:type="MSShapeGroup">
                <g id="g5" transform="translate(0.000000, 4.000000)">
                    <path d="M25.613,0.23 L0,0.23 L0,80.221 L25.613,80.221 L25.613,0.23 L25.613,0.23 Z M12.223,67.417 C14.473,67.417 16.297,69.238 16.297,71.49 C16.297,73.739 14.474,75.564 12.223,75.564 C9.972,75.564 8.149,73.74 8.149,71.49 C8.149,69.238 9.972,67.413 12.223,67.417 L12.223,67.417 Z" id="path7"></path>
                </g>
                <g id="g9" transform="translate(29.000000, 0.000000)">
                    <path d="M58.313,0 L27.6,0 C25.551,0 22.005,0.473 18.512,3.965 L1.129,22.951 C1.019,23.063 0.392,23.199 0.392,23.346 L0.392,75.619 C2.718,78.335 7.077,79.167 10.914,79.167 L86.253,79.167 C89.101,79.167 91.412,76.419 91.412,73.345 C91.412,70.082 89.104,67.526 86.253,67.526 L59.264,67.526 C58.192,67.526 57.328,66.85 57.328,65.78 C57.328,64.71 58.191,64.033 59.264,64.033 L100.889,64.033 C103.938,64.033 106.044,60.541 106.044,58.11 C106.044,54.846 103.738,51.225 100.889,51.225 L59.264,51.225 C58.19,51.225 57.328,50.549 57.328,49.479 C57.328,48.411 58.189,47.732 59.264,47.732 L106.708,47.732 C108.125,47.732 109.417,47.313 110.355,46.115 C111.284,44.915 111.865,43.497 111.865,41.872 C111.865,38.614 109.557,34.929 106.708,34.929 L59.264,34.929 C58.192,34.929 57.328,34.252 57.328,33.181 C57.328,32.111 58.191,31.435 59.264,31.435 L98.589,31.435 C101.39,31.435 103.746,27.945 103.746,25.57 C103.746,22.307 101.436,18.629 98.589,18.629 L36.193,18.629 C33.865,18.629 32.28,17.465 32.28,15.056 C32.28,12.809 33.865,11.645 36.25,11.645 L36.892,11.645 L58.313,11.645 C59.731,11.645 61.022,11.376 61.963,10.319 C62.889,9.274 63.472,7.962 63.472,6.363 C63.472,3.149 61.163,0.002 58.313,0 L58.313,0 Z" id="path11"></path>
                </g>
            </g>
        </g>
    </g>
</svg>