<?xml version="1.0" encoding="UTF-8" standalone="no"?>
<svg width="168px" height="101px" viewBox="0 0 168 101" version="1.1" xmlns="http://www.w3.org/2000/svg" xmlns:xlink="http://www.w3.org/1999/xlink" xmlns:sketch="http://www.bohemiancoding.com/sketch/ns">
    <!-- Generator: Sketch 3.0.4 (8054) - http://www.bohemiancoding.com/sketch -->
    <title>acuerdototalacuerdototal</title>
    <desc>Created with Sketch.</desc>
    <defs></defs>
    <g id="Introduction" stroke="none" stroke-width="1" fill="none" fill-rule="evenodd" sketch:type="MSPage">
        <g id="acuerdototal" sketch:type="MSLayerGroup" fill="#3DB191">
            <g id="g5" transform="translate(141.757420, 0.286026)" sketch:type="MSShapeGroup">
                <g id="g7">
                    <path d="M-0.500627673,81.758362 L25.6299164,81.758362 L25.6299164,0.191674754 L-0.500627673,0.191674754 L-0.500627673,81.758362 L-0.500627673,81.758362 Z M17.3150559,72.8555741 C17.3150559,75.1486095 15.4548608,77.0088634 13.1596444,77.0088634 C10.8634186,77.0088634 9.00322348,75.1476007 9.00322348,72.8555741 C9.00322348,70.5585035 10.8634186,68.701276 13.1596444,68.701276 C15.4558701,68.6972408 17.3150559,70.5574947 17.3150559,72.8555741 L17.3150559,72.8555741 Z" id="path9"></path>
                </g>
            </g>
            <g id="g11" transform="translate(0.000000, 0.286026)" sketch:type="MSShapeGroup">
                <g id="g13">
                    <path d="M26.130544,0.191674754 L0,0.191674754 L0,81.758362 L26.130544,81.758362 L26.130544,0.191674754 L26.130544,0.191674754 Z M12.4722906,68.701276 C14.7685164,68.701276 16.6277022,70.5585035 16.6277022,72.8555741 C16.6277022,75.1476007 14.7685164,77.0088634 12.4722906,77.0088634 C10.1740463,77.0088634 8.31586976,75.1486095 8.31586976,72.8555741 C8.31586976,70.5574947 10.1740463,68.6972408 12.4722906,68.701276 L12.4722906,68.701276 Z" id="path15"></path>
                </g>
            </g>
            <path d="M51.9798932,50.3601117 L51.8751963,50.2613359 C50.6706708,49.080898 49.0688775,48.4285759 47.3643429,48.4285759 C45.6059895,48.4285759 43.9679922,49.1151276 42.7478108,50.3640257 L32.0773419,61.1865019 C29.5929479,63.7322187 29.6350223,67.8231657 32.1839956,70.3092258 L32.2867356,70.4070295 C33.4951747,71.5913802 35.0950113,72.2407674 36.8034606,72.2407674 C38.5618129,72.2407674 40.2017682,71.5551936 41.4209712,70.3062967 L52.0855696,59.4828414 C54.570942,56.9469039 54.5288664,52.8500893 51.9798885,50.3601175 L51.9798932,50.3601117 Z" id="path18" sketch:type="MSShapeGroup"></path>
            <path d="M64.9840712,59.9160883 C63.775632,58.7346725 62.1757955,58.0843062 60.4712598,58.0843062 C58.7129075,58.0843062 57.0749102,58.76988 55.8498367,60.0168212 L45.189152,70.8432102 C42.7018216,73.3830594 42.7478108,77.4788961 45.2958057,79.9659341 L45.3985457,80.0627541 C46.6069848,81.2431919 48.2068214,81.8945362 49.9113571,81.8945362 C51.6697094,81.8945362 53.3077066,81.2128741 54.5288664,79.9659329 L65.1954217,69.1375881 C67.6837305,66.5967609 67.6328492,62.5028801 65.088768,60.01682 L64.9840712,59.9160883 Z" id="path20" sketch:type="MSShapeGroup"></path>
            <path d="M79.0411032,68.5214525 L78.9364063,68.4187649 C77.7279672,67.239305 76.1281306,66.5879608 74.4216393,66.5879608 C72.6632858,66.5879608 71.0252885,67.2735346 69.807064,68.5224327 L59.1385519,79.3488206 C56.6512226,81.8896477 56.7011256,85.9884193 59.2471624,88.4695886 L59.3499024,88.5703203 C60.5544267,89.752714 62.1562213,90.4011233 63.8617342,90.4011233 C65.6200865,90.4011233 67.2580849,89.7165286 68.4812016,88.4666525 L79.1458,77.6431984 C81.6341077,75.1004143 81.5851832,71.0055556 79.0411032,68.5214525 L79.0411032,68.5214525 Z" id="path22" sketch:type="MSShapeGroup"></path>
            <path d="M92.1470427,77.7947867 L92.0403891,77.6891596 C90.8358636,76.5106776 89.2360271,75.8632462 87.5295345,75.8632462 C85.7711822,75.8632462 84.1331849,76.54882 82.9120252,77.7957611 L72.2435131,88.6221501 C69.7581395,91.1629773 69.8060856,95.2529464 72.3501667,97.744874 L72.4568204,97.8436499 C73.6613459,99.021154 75.2650961,99.6764099 76.9657181,99.6764099 C78.7260273,99.6764099 80.3659814,98.9879023 81.5851843,97.7399821 L92.2536964,86.9135942 C94.7420053,84.373745 94.6911239,80.2788863 92.1470427,77.794782 L92.1470427,77.7947867 Z" id="path24" sketch:type="MSShapeGroup"></path>
            <path d="M101.879224,3.79752551 C98.5552826,3.79752551 97.2613445,5.04865609 97.2476455,5.06332607 C83.0252464,20.307311 69.7817362,30.395322 68.2640928,31.5366407 C65.8628704,36.8530134 72.1421915,41.2267997 72.9680402,41.7715424 C74.6784464,42.1901228 76.2854225,42.3863598 77.744356,42.3863598 C80.1553626,42.3863598 81.3510348,41.8125977 81.3627771,41.8077081 L81.5075139,41.7353766 L81.7246192,41.7353766 C85.4389799,41.7353766 98.813602,30.5918691 103.652251,26.2926098 L104.014093,25.9671182 L104.412119,26.1841126 C116.654306,32.191657 131.314331,47.2192772 138.171985,54.7188738 L138.171985,9.90953393 C135.25328,10.692408 132.6586,10.8860087 130.898959,10.8860087 C129.538849,10.8860087 128.676148,10.7902187 128.546985,10.7775115 C122.253318,10.1623526 114.472485,7.49235887 114.145669,7.37793281 L114.073301,7.34176708 C109.277709,4.99262756 105.191424,3.79752551 101.879224,3.79752551 L101.879224,3.79752551 Z" id="path28" sketch:type="MSShapeGroup"></path>
            <path d="M56.8660665,10.1265283 C55.8992395,10.5546496 35.4121447,11.6439428 30.5963297,11.8986491 L30.5963297,56.707989 C30.8009088,56.9330324 31.1007422,57.230221 31.2476455,57.3951379 L43.6588297,45.2434525 C44.9336857,44.9872382 45.9564854,44.8817952 46.9154086,44.8817952 C54.5623342,44.8817952 56.7083497,51.9348266 57.1917244,54.1763879 C57.8199182,54.1157567 58.4148179,54.0678907 59.0009349,54.0678907 C68.0539546,54.0678907 69.9459593,61.3241041 70.3265928,63.7964721 C71.5898282,63.541215 72.7913895,63.3986491 73.9088297,63.3986491 C82.2084096,63.3986491 84.1017933,70.3900472 84.5108034,72.7294075 C88.8758627,72.0712179 92.2480887,72.9978105 94.4976455,75.478003 C98.0818658,79.4066024 97.5224614,85.7674924 97.5009349,86.0383963 L85.1621192,98.8048991 C86.8803539,99.7222576 88.5283658,100.179197 90.0469876,100.179197 C96.1420227,100.179197 98.7732332,92.6997766 98.8035665,92.6205592 L99.0206718,92.0419075 L99.5996192,92.1504047 C100.616274,92.3293771 101.558937,92.4397306 102.458172,92.4397306 C110.687307,92.4397306 111.128673,84.6662349 111.142382,84.338607 L111.178509,83.4706294 L112.010745,83.6876238 C113.666359,84.1189184 115.211789,84.338607 116.606138,84.338607 C125.183614,84.338607 126.054107,76.2552677 126.086401,75.9119918 L126.158769,75.1525115 L126.882454,75.2971744 C128.151564,75.5328708 129.358044,75.6588317 130.428506,75.6588317 C133.297457,75.6588317 135.426061,74.8064453 136.796927,73.1272306 C139.450602,69.89594 138.517165,64.5717612 138.461401,64.2666266 C136.213858,55.32581 107.638653,33.7141151 103.616067,30.7048289 C92.3174049,41.3894077 83.5829348,45.4026847 83.2081718,45.568944 C81.4537737,46.1058622 79.420756,46.4007558 77.3101455,46.4007558 C74.6261385,46.4007558 72.4239212,45.9444936 71.3397507,45.568944 C69.1518392,44.8051319 65.4230557,41.1944935 63.8134349,38.2996322 C62.1509748,35.3099056 63.5992256,30.7860623 63.6686981,30.5963317 L88.4910665,7.05244124 C87.3041538,5.86906961 84.9430235,5.28032045 81.4713297,5.28032045 C71.9985361,5.28032045 57.6674524,9.86735948 56.8660665,10.1265283 Z" id="path32" sketch:type="MSShapeGroup"></path>
        </g>
    </g>
</svg>