<?xml version="1.0" encoding="utf-8"?>
<!-- Generator: Adobe Illustrator 15.0.0, SVG Export Plug-In . SVG Version: 6.00 Build 0)  -->
<!DOCTYPE svg PUBLIC "-//W3C//DTD SVG 1.1//EN" "http://www.w3.org/Graphics/SVG/1.1/DTD/svg11.dtd">
<svg version="1.1" id="Capa_1" xmlns="http://www.w3.org/2000/svg" xmlns:xlink="http://www.w3.org/1999/xlink" x="0px" y="0px"
	 width="116.724px" height="90.834px" viewBox="0 0 116.724 90.834" enable-background="new 0 0 116.724 90.834"
	 xml:space="preserve">
<g>
	<g>
		<path fill="#EB6956" d="M25.692,7.885H0v80.237h25.692V7.885z M12.263,75.279c2.258,0,4.086,1.826,4.086,4.086
			c0,2.255-1.828,4.086-4.086,4.086c-2.26,0-4.086-1.83-4.086-4.086C8.176,77.105,10.003,75.274,12.263,75.279z"/>
	</g>
	<g id="Your_Icon_5_">
		<g>
			<path fill="#EB6956" d="M89.443,36.974l13.984,10.614c3.664,2.744,8.868,2.018,11.626-1.626
				c2.758-3.642,2.024-8.821-1.637-11.563L96.924,21.883c-0.184,0.583-0.414,1.152-0.694,1.695L89.443,36.974z"/>
			<path fill="#EB6956" d="M79.192,50.012c-1.061,0.338-2.148,0.515-3.231,0.528l20.878,15.731
				c3.663,2.745,8.868,2.013,11.626-1.628c2.758-3.645,2.024-8.822-1.639-11.564L88.339,39.15l-2.774,5.477
				C84.233,47.211,81.971,49.123,79.192,50.012z"/>
			<path fill="#EB6956" d="M57.55,49.967c-1.125,1.489-1.667,3.23-1.667,4.96c0,2.506,1.14,4.979,3.308,6.602l22.536,17.119
				c3.663,2.744,8.866,2.017,11.627-1.626c1.126-1.488,1.671-3.231,1.671-4.959c0-2.508-1.142-4.982-3.31-6.604l-22.535-17.12
				C65.518,45.595,60.31,46.324,57.55,49.967z"/>
			<path fill="#EB6956" d="M75.923,87.543c1.128-1.487,1.671-3.23,1.671-4.96c0-2.505-1.142-4.98-3.31-6.603l-12.943-9.678
				c-3.659-2.742-8.867-2.013-11.627,1.629c-1.126,1.489-1.669,3.231-1.669,4.959c0,2.505,1.14,4.981,3.31,6.602l12.939,9.678
				C67.961,91.917,73.166,91.186,75.923,87.543z"/>
			<g>
				<path fill="#EB6956" d="M91.52,8.772c-2.314-1.106-16.71-8.157-22.86-8.743c-1.673-0.159-5.085,0.365-6.654,0.968
					c-7.798,2.995-25.945,16.678-31.854,21.215v52.845c2.57,1.597,5.476,3.181,8.788,4.665c4.094,1.835,8.818,2.405,12.42,2.525
					l-1.336-0.992c-2.664-1.994-4.19-5.042-4.19-8.36c0-2.285,0.731-4.46,2.115-6.287c1.69-2.233,4.154-3.674,6.935-4.068
					c0.149-0.021,0.296-0.035,0.441-0.05c-0.617-2.138-1.391-4.416-2.378-6.816c-1.118-2.729-2.356-5.103-3.621-7.16l0.086-0.229
					c0,0,6.103,0,15.45-13.056c3.349-4.675,7.857-15.915,7.857-15.915l3.055,1.244l-7.68,15.159c-0.652,1.266-0.96,2.613-0.96,3.948
					c0,3.145,1.729,6.178,4.74,7.717c4.281,2.18,9.529,0.499,11.724-3.759L95.3,20.435c0.655-1.277,0.97-2.649,0.97-4.002
					C96.27,13.273,94.559,10.223,91.52,8.772z"/>
			</g>
		</g>
	</g>
</g>
</svg>
