<?xml version="1.0" encoding="utf-8"?>
<!-- Generator: Adobe Illustrator 15.0.0, SVG Export Plug-In . SVG Version: 6.00 Build 0)  -->
<!DOCTYPE svg PUBLIC "-//W3C//DTD SVG 1.1//EN" "http://www.w3.org/Graphics/SVG/1.1/DTD/svg11.dtd">
<svg version="1.1" id="Capa_1" xmlns="http://www.w3.org/2000/svg" xmlns:xlink="http://www.w3.org/1999/xlink" x="0px" y="0px"
	 width="116.724px" height="90.834px" viewBox="0 0 116.724 90.834" enable-background="new 0 0 116.724 90.834"
	 xml:space="preserve">
<g>
	<g>
		<path fill="#EB6956" d="M91.032,88.123h25.692V7.885H91.032V88.123z M108.547,79.365c0,2.257-1.827,4.086-4.086,4.086
			c-2.258,0-4.086-1.831-4.086-4.086c0-2.26,1.828-4.086,4.086-4.086C106.721,75.274,108.547,77.105,108.547,79.365z"/>
	</g>
	<g id="Your_Icon_5_">
		<g>
			<path fill="#EB6956" d="M27.281,36.974L13.296,47.588c-3.664,2.744-8.868,2.018-11.626-1.626
				c-2.758-3.642-2.024-8.821,1.637-11.563l16.492-12.516c0.184,0.583,0.414,1.152,0.694,1.695L27.281,36.974z"/>
			<path fill="#EB6956" d="M37.532,50.012c1.061,0.338,2.148,0.515,3.231,0.528L19.885,66.271
				c-3.663,2.745-8.868,2.013-11.626-1.628c-2.758-3.645-2.024-8.822,1.639-11.564L28.384,39.15l2.774,5.477
				C32.491,47.211,34.752,49.123,37.532,50.012z"/>
			<path fill="#EB6956" d="M59.174,49.967c1.125,1.489,1.667,3.23,1.667,4.96c0,2.506-1.14,4.979-3.308,6.602L34.998,78.648
				c-3.663,2.744-8.866,2.017-11.627-1.626c-1.126-1.488-1.671-3.231-1.671-4.959c0-2.508,1.142-4.982,3.31-6.604l22.535-17.12
				C51.206,45.595,56.414,46.324,59.174,49.967z"/>
			<path fill="#EB6956" d="M40.8,87.543c-1.128-1.487-1.671-3.23-1.671-4.96c0-2.505,1.142-4.98,3.31-6.603l12.943-9.678
				c3.659-2.742,8.867-2.013,11.627,1.629c1.126,1.489,1.669,3.231,1.669,4.959c0,2.505-1.14,4.981-3.31,6.602l-12.939,9.678
				C48.762,91.917,43.558,91.186,40.8,87.543z"/>
			<g>
				<path fill="#EB6956" d="M25.204,8.772c2.314-1.106,16.71-8.157,22.86-8.743c1.673-0.159,5.085,0.365,6.654,0.968
					c7.798,2.995,25.945,16.678,31.854,21.215v52.845c-2.57,1.597-5.476,3.181-8.788,4.665c-4.094,1.835-8.818,2.405-12.42,2.525
					l1.336-0.992c2.664-1.994,4.19-5.042,4.19-8.36c0-2.285-0.731-4.46-2.115-6.287c-1.69-2.233-4.154-3.674-6.935-4.068
					c-0.149-0.021-0.296-0.035-0.441-0.05c0.617-2.138,1.391-4.416,2.378-6.816c1.118-2.729,2.356-5.103,3.621-7.16l-0.086-0.229
					c0,0-6.103,0-15.45-13.056c-3.349-4.675-7.857-15.915-7.857-15.915l-3.055,1.244l7.68,15.159c0.652,1.266,0.96,2.613,0.96,3.948
					c0,3.145-1.729,6.178-4.74,7.717c-4.281,2.18-9.529,0.499-11.724-3.759L21.423,20.435c-0.655-1.277-0.97-2.649-0.97-4.002
					C20.454,13.273,22.165,10.223,25.204,8.772z"/>
			</g>
		</g>
	</g>
</g>
</svg>
